# generated by HE_OBJExport
o 0
v -107.99977111816406 -228.99984741210938 182.000244140625
v 184.15252685546875 -111.4090805053711 116.18019104003906
v 20.33349609375 -113.99981689453125 2.44140625E-4
v 77.00054931640625 332.00048828125 -499.9995422363281
v -32.42622756958008 -75.75199890136719 104.39295959472656
v 102.37203216552734 -15.626643180847168 48.73359680175781
v 214.5259246826172 68.22277069091797 -85.89385986328125
v 142.94955444335938 195.4766845703125 -255.68319702148438
v -72.29737091064453 60.13608169555664 54.84381103515625
v 51.82091522216797 66.68113708496094 67.06867980957031
v 158.8461456298828 83.85650634765625 33.12055969238281
v 153.52877807617188 148.9252166748047 -103.3938980102539
v -175.0 175.0 0.0
v -42.9627685546875 134.2885284423828 29.60664176940918
v 73.27950286865234 139.7364501953125 25.984403610229492
v 175.0 175.0 0.0
v 186.88821411132812 20.112836837768555 -5.023021221160889
v 200.03175354003906 50.50439453125 18.84113311767578
v 129.44244384765625 57.11803436279297 84.10919189453125
v 108.09504699707031 35.03730392456055 69.3507308959961
v 422.23388671875 -19.96588134765625 70.99365234375
v 379.1280517578125 -30.526153564453125 -111.59228515625
v 259.0369567871094 -34.49932098388672 3.7627670764923096
v 172.92764282226562 30.580345153808594 71.01260375976562
v 312.9082336425781 -21.193683624267578 -38.6527099609375
v 204.0569610595703 39.63104248046875 62.68541717529297
v 170.82199096679688 68.23124694824219 67.55958557128906
v 150.9913330078125 47.213043212890625 105.22966766357422
v 185.65284729003906 24.639022827148438 100.01670837402344
v 376.10589599609375 -98.32026672363281 353.8023986816406
v 389.9058532714844 -102.07559204101562 266.2574157714844
v 512.3885498046875 -43.884674072265625 155.07965087890625
v 435.5607604980469 -23.186870574951172 212.6220245361328
v 259.04974365234375 -64.56444549560547 338.9566345214844
v 245.96917724609375 -60.62931823730469 255.7984161376953
v 276.03277587890625 -14.641030311584473 167.08184814453125
v 332.1187438964844 4.694464206695557 231.40194702148438
v 182.333984375 8.12014389038086 288.2985534667969
v 191.9520721435547 13.073561668395996 205.99073791503906
v 194.8976593017578 49.375999450683594 118.39947509765625
v 241.62213134765625 33.90855026245117 197.2330322265625
v 199.66836547851562 22.241151809692383 404.89892578125
v 195.224609375 18.62809944152832 298.8134460449219
v 198.71456909179688 43.36006546020508 206.2326202392578
v 233.33482360839844 35.73322677612305 297.76849365234375
v 258.2974853515625 -40.3184814453125 210.0037384033203
v 228.72499084472656 16.542236328125 125.10823059082031
v 178.81971740722656 26.55341911315918 152.2982635498047
v 224.41082763671875 -23.544958114624023 212.87696838378906
v 437.44671630859375 -74.91780090332031 215.8290252685547
v 375.64971923828125 -67.50877380371094 213.7056427001953
v 284.03131103515625 -165.57196044921875 340.5372314453125
v 214.85504150390625 -1.3584318161010742 163.67181396484375
v 325.7375183105469 -105.69432830810547 268.1951904296875
v 215.28076171875 27.927213668823242 98.74121856689453
v 183.97389221191406 56.88505172729492 96.76641845703125
v 167.60711669921875 35.751121520996094 131.51515197753906
v 200.35647583007812 12.479449272155762 134.00152587890625
vn 0.0958466981699663 0.5589430367397114 0.8236480389888057
vn -0.06776043157582788 0.7809894609762694 0.6208574600958369
vn 0.32513902389340094 -0.844213109427864 -0.4261324219204447
vn 0.2910038099670068 -0.5819567092671935 -0.7593702464039432
vn 0.09244000083856312 0.35853313924458674 0.9289288639655827
vn 0.2638295466445391 0.1473347936279277 0.9532504544472836
vn 0.989959345215765 0.14081284240131317 0.012338485921566205
vn 0.8789772451945517 0.046237303757295185 -0.47461680772118936
vn -0.009943701252606855 0.251119194356068 0.9679050950539305
vn -0.0262045025035546 0.1726406140431833 0.9846362487900463
vn 0.5350491021550099 0.6826050007145851 0.4977678889628769
vn 0.8479421952972234 0.36116514799933686 0.3880125891065169
vn -0.10396712572772344 0.3570606721399241 0.9282771747591888
vn -0.010744425773332556 0.47138597319059505 0.8818615660033932
vn 0.5328048774868939 0.35293943908496017 0.769124641956406
vn 0.8477178124416787 0.04191065846774362 0.5287891897305533
vn 0.7314744764082456 0.02253704113688921 0.6814962744873058
vn 0.9974702224252425 -0.011997452115222742 0.07006580134188295
vn -0.28049788980378104 0.07594609803470985 0.9568454023555362
vn 0.10251938857296149 -0.4081993320330749 0.9071180079208976
vn 0.22578850068231424 -0.12364707260890777 0.9662975496165144
vn 0.7813046589017772 -0.5815035919095999 -0.2267522934274552
vn 0.07225902192857481 0.7228209357298048 0.6872470651960729
vn 0.1962901420426407 -0.9147070704662676 0.35324376197733254
vn 0.3955880448493545 0.5798915436182052 0.712204953936969
vn 0.9345142066716008 -0.22134917207981208 -0.27872520795315653
vn 0.3086122534167618 0.9078022676291694 0.2839956336431359
vn -0.8054071709420402 0.06210266776010735 0.5894595386048282
vn -0.21378260373918917 -0.9648686654978559 -0.15272673858522448
vn -0.22817054904804868 -0.597893983968253 0.7684145915335566
vn -0.1368411232826228 -0.9805048291106491 0.14101342868481354
vn -0.019487849277602394 -0.23674475510545023 -0.9713764175954621
vn 0.048681043862217714 0.4589474388553098 -0.8871287416923411
vn -0.5500172229649739 -0.7253409572201912 0.41395839189560457
vn -0.5182800938752018 -0.8510317205329044 -0.08444379751951328
vn 0.13286765780418638 -0.1896963960054533 -0.9728111136557661
vn 0.34924578249849225 0.6162027415809761 -0.705918950500059
vn -0.9962786172451421 0.07671141102819769 -0.03929728028973997
vn -0.995984912909921 -0.08763011365088312 -0.01830345424640611
vn 0.10290863491610808 0.9943108357778812 0.027491357085358836
vn 0.4331393767316653 0.8769632855240448 -0.20814820721634208
vn -0.6260666958798122 0.7796825090397491 -0.011648064543798506
vn -0.8008685283357905 0.5967422172662119 0.05008319532009049
vn -0.459418196309538 0.8837790213874119 0.08871055323465911
vn 0.22042398772166188 0.975032441177878 0.026925903654073085
vn -0.26791865246663665 -0.7976867074852129 -0.5402920620940697
vn 0.6154522110323145 -0.19223043566337458 -0.7643729688706323
vn -0.9795899967137806 -0.1255340502847803 0.15698611581090127
vn -0.6260153209738536 -0.7587384174553623 -0.18005785676647182
vn -0.02427019810274504 -0.8214684674337578 -0.569737232850449
vn -0.07952981671031743 -0.4754635751757178 -0.8761332073007779
vn -0.22596984205938148 -0.9557252952448634 -0.1884855180346147
vn -0.38800459456132014 -0.867369243777303 -0.31164567949595484
vn -0.12989163459119185 -0.7890000213354248 -0.6005057281957663
vn 0.849617439502525 -0.22236317240384615 -0.4782309338088354
vn 0.2872292421180734 0.9266384752049783 0.24257060568434502
vn -0.8829570520759421 0.06873391171151341 0.4643947604896031
vn -0.28358667022634343 -0.930750430673878 -0.23082945277915878
f 5//5 1//1 2//2
f 6//6 5//5 2//2
f 23//23 6//6 2//2
f 21//21 3//3 25//25
f 22//22 25//25 3//3
f 22//22 3//3 7//7
f 8//8 7//7 3//3
f 4//4 8//8 3//3
f 10//10 9//9 5//5
f 20//20 10//10 6//6
f 5//5 6//6 10//10
f 18//18 24//24 17//17
f 7//7 18//18 17//17
f 7//7 8//8 12//12
f 18//18 7//7 11//11
f 12//12 11//11 7//7
f 14//14 13//13 9//9
f 10//10 14//14 9//9
f 15//15 14//14 10//10
f 11//11 15//15 19//19
f 10//10 19//19 15//15
f 16//16 15//15 11//11
f 12//12 16//16 11//11
f 19//19 10//10 20//20
f 24//24 19//19 20//20
f 20//20 6//6 24//24
f 17//17 24//24 6//6
f 7//7 17//17 25//25
f 22//22 7//7 25//25
f 17//17 6//6 23//23
f 25//25 17//17 23//23
f 23//23 2//2 21//21
f 25//25 23//23 21//21
f 29//29 24//24 26//26
f 18//18 26//26 24//24
f 18//18 11//11 27//27
f 26//26 18//18 27//27
f 11//11 19//19 27//27
f 28//28 27//27 19//19
f 28//28 19//19 24//24
f 29//29 28//28 24//24
f 34//34 35//35 52//52
f 30//30 34//34 52//52
f 31//31 30//30 52//52
f 50//50 54//54 51//51
f 32//32 50//50 51//51
f 51//51 36//36 37//37
f 32//32 51//51 33//33
f 37//37 33//33 51//51
f 34//34 38//38 35//35
f 49//49 35//35 38//38
f 39//39 49//49 38//38
f 46//46 53//53 36//36
f 47//47 36//36 53//53
f 47//47 40//40 41//41
f 36//36 47//47 41//41
f 37//37 36//36 41//41
f 39//39 38//38 43//43
f 42//42 43//43 38//38
f 40//40 48//48 44//44
f 43//43 44//44 39//39
f 48//48 39//39 44//44
f 41//41 40//40 44//44
f 45//45 41//41 44//44
f 39//39 48//48 53//53
f 49//49 39//39 53//53
f 49//49 53//53 46//46
f 35//35 49//49 46//46
f 54//54 46//46 51//51
f 36//36 51//51 46//46
f 52//52 35//35 54//54
f 46//46 54//54 35//35
f 31//31 52//52 54//54
f 50//50 31//31 54//54
f 53//53 58//58 47//47
f 55//55 47//47 58//58
f 55//55 56//56 40//40
f 47//47 55//55 40//40
f 56//56 57//57 40//40
f 48//48 40//40 57//57
f 48//48 57//57 58//58
f 53//53 48//48 58//58
f 58//58 29//29 55//55
f 26//26 55//55 29//29
f 26//26 27//27 56//56
f 55//55 26//26 56//56
f 27//27 28//28 56//56
f 57//57 56//56 28//28
f 57//57 28//28 29//29
f 58//58 57//57 29//29
