# generated by HE_OBJExport
o 0
v -175.0 -175.0 0.0
v -40.3624267578125 -113.57913970947266 15.512619972229004
v -40.80131912231445 -43.7735481262207 -45.196014404296875
v -96.55087280273438 -60.45164489746094 48.091888427734375
v 69.79486846923828 -129.86134338378906 -18.0433406829834
v 50.1949462890625 -44.714027404785156 -36.47986602783203
v 175.0 -175.0 0.0
v 137.19361877441406 -57.91105651855469 -13.775300979614258
v -38.57208251953125 39.25483322143555 26.2534236907959
v -119.21134948730469 46.780887603759766 13.684591293334961
v 54.673282623291016 40.608211517333984 -38.10441589355469
v 139.1411895751953 59.043601989746094 -13.556396484375
v -89.681884765625 112.43592071533203 26.960935592651367
v -175.0 175.0 0.0
v 175.0 175.0 0.0
v 115.7107162475586 108.77351379394531 -23.314613342285156
v -77.73201751708984 -53.15047073364258 -3.77213716506958
v -42.57462692260742 -1.8748071193695068 -49.067378997802734
v -87.53379821777344 47.27363204956055 -1.080643892288208
v -96.91162872314453 -4.7245988845825195 40.9780158996582
v -106.9031982421875 -138.08099365234375 -16.961647033691406
v -55.74261474609375 -82.41769409179688 -17.055524826049805
v -124.38469696044922 -114.78579711914062 26.058483123779297
v 5.164438247680664 -37.304542541503906 -44.91840362548828
v 38.196624755859375 -1.8452482223510742 -37.43312454223633
v 7.550074577331543 21.784069061279297 7.983985900878906
v -24.458892822265625 105.94623565673828 56.937591552734375
v -142.9077606201172 131.06802368164062 -20.328184127807617
v -144.4516143798828 113.50826263427734 -20.820886611938477
v -74.19001007080078 -2.9825589656829834 -1.9828366041183472
v -98.50137329101562 -96.09845733642578 -30.80942726135254
v -1.387976884841919 -1.968505620956421 -49.12715148925781
v -117.62077331542969 89.64326477050781 -33.393798828125
v -147.72682189941406 -149.77725219726562 50.09013366699219
v -38.73111343383789 -101.31340789794922 79.2244873046875
v -39.308311462402344 -46.25911331176758 188.07864379882812
v -91.51025390625 -60.357059478759766 105.7873764038086
v 62.66691589355469 -104.64521026611328 53.3673095703125
v 51.99312973022461 -45.67948913574219 125.79737854003906
v 142.83604431152344 -140.35511779785156 39.046382904052734
v 111.37335205078125 -54.65911102294922 52.99560546875
v -51.62325668334961 21.156192779541016 95.3301773071289
v -124.91026306152344 2.5564212799072266 28.026647567749023
v 56.18732452392578 33.3313102722168 44.15878677368164
v 122.42530822753906 50.88652038574219 33.36937713623047
v -103.0286636352539 86.27176666259766 57.56472396850586
v -166.06825256347656 88.62086486816406 -9.013894081115723
v 152.53628540039062 136.65225219726562 32.68046951293945
v 104.86424255371094 91.56539154052734 25.254562377929688
v -77.33563995361328 -56.62395477294922 159.4453887939453
v -42.15304946899414 -6.331101894378662 159.78575134277344
v -101.48121643066406 6.910855293273926 81.40496063232422
v -97.50846862792969 -11.01468276977539 87.48059844970703
v -98.7127456665039 -121.17518615722656 64.82145690917969
v -50.765602111816406 -81.47750854492188 146.0072021484375
v -115.40533447265625 -110.78871154785156 82.6494369506836
v 10.124350547790527 -33.21319580078125 174.4812774658203
v 39.684722900390625 1.1167685985565186 114.00638580322266
v 5.171351432800293 14.768729209899902 77.06072998046875
v -77.73275756835938 57.93879318237305 59.66500473022461
v -132.13623046875 84.5611343383789 30.449920654296875
v -164.7005615234375 -21.80860137939453 -57.76166534423828
v -82.3095703125 -12.641031265258789 136.02992248535156
v -88.03633117675781 -96.32024383544922 123.64935302734375
v 4.062967300415039 -3.1903493404388428 145.01358032226562
v -121.4093246459961 25.325782775878906 29.280773162841797
v 106.65606689453125 -64.95880889892578 90.88238525390625
v 128.1154022216797 -124.51600646972656 80.11814880371094
v 72.51158142089844 -100.76990509033203 90.33036804199219
v 78.69699096679688 -72.25531768798828 136.98068237304688
v -73.04722595214844 -18.967741012573242 180.43939208984375
v -52.34688949584961 -16.37734031677246 198.03369140625
v -52.71129608154297 -37.02973556518555 220.8262481689453
v -70.90570831298828 -45.32817077636719 197.88832092285156
v 34.9285888671875 -6.9227190017700195 157.0145263671875
v 43.439537048339844 -34.61981201171875 166.99490356445312
v 28.7773380279541 -25.604801177978516 199.61647033691406
v 18.257827758789062 -9.662714004516602 180.34388732910156
v 104.53305053710938 87.97908782958984 62.095237731933594
v 140.20217895507812 118.63597869873047 69.75370788574219
v 119.45677185058594 59.406959533691406 68.90062713623047
v 74.52867889404297 48.57933044433594 78.3956069946289
v -60.70219802856445 16.237028121948242 138.92352294921875
v -62.8245964050293 11.188082695007324 176.83502197265625
v -83.24542236328125 0.7627531290054321 165.64259338378906
v -89.72489166259766 6.498753547668457 130.59437561035156
v -73.6113052368164 -65.8366928100586 196.30337524414062
v -53.190704345703125 -62.5753173828125 216.51242065429688
v -56.921085357666016 -77.63302612304688 186.9305419921875
v -78.93864440917969 -86.25524139404297 168.84808349609375
v -118.47261810302734 -117.33170318603516 116.23970031738281
v -104.10734558105469 -119.50001525878906 141.58668518066406
v -103.47775268554688 -122.35863494873047 105.69557189941406
v -137.47891235351562 -141.07980346679688 91.68130493164062
v -3.690509557723999 -10.40915298461914 187.70420837402344
v -1.1826255321502686 -25.982728958129883 210.13539123535156
v -29.770875930786133 -33.73439407348633 221.37930297851562
v -30.908618927001953 -12.809469223022461 199.3597869873047
v -109.64936828613281 76.47222900390625 91.29850769042969
v -98.18175506591797 54.280860900878906 86.94727325439453
v -113.71752166748047 43.17853927612305 68.1406478881836
v -122.8619613647461 74.57514953613281 69.67157745361328
v -146.1479034423828 54.40202713012695 41.45626449584961
v -154.30625915527344 24.15320587158203 21.399120330810547
v -160.2516326904297 9.2659273147583 -10.928150177001953
v -160.20626831054688 50.582054138183594 12.539403915405273
v -140.57879638671875 -1.34915292263031 37.814640045166016
v -132.26844787597656 -1.9384286403656006 72.3258285522461
v -142.51856994628906 -7.061094284057617 49.32868194580078
v -151.62417602539062 -11.715639114379883 3.320270299911499
v -162.9331817626953 36.96552658081055 -19.148073196411133
v -157.47674560546875 78.51891326904297 -6.8507537841796875
v -168.81243896484375 121.16046905517578 10.46803092956543
v -166.36273193359375 82.67964935302734 12.984573364257812
v -169.92433166503906 144.37991333007812 23.043607711791992
v -143.81344604492188 123.59120178222656 17.414405822753906
v -144.70196533203125 111.12924194335938 45.56153106689453
v -165.309814453125 114.45274353027344 22.455224990844727
vn 0.9431127407528508 -0.1938635450715952 0.2701023586011786
vn -0.19767165362768926 0.9034507427962616 0.3803980450698688
vn 0.34354167708092076 0.1202341341397017 0.9314090772029787
vn 0.9640295727056791 -0.23368846309760444 0.1266360342240129
vn 0.12121305298805866 0.8815915963451069 0.4561837930472762
vn -0.14089025719021533 0.15834599386948203 0.9772801449197466
vn -0.6799511978123095 0.6786202720981159 0.27774249745237894
vn -0.8760108921709494 -0.06010021522438551 0.47853200616869895
vn -0.4775067214649404 -0.8165606809698944 0.324370136186712
vn 0.07415274456234099 0.6184846171813001 0.7822903225682731
vn 0.2537897065747595 -0.6642891382914353 0.703072347333274
vn -0.873700146278887 0.1379916676040448 0.46648296224418084
vn 0.019746935062514927 -0.8911652241144453 -0.45324894030178065
vn 0.3492964320869639 -0.3823775316664876 0.8554410709148592
vn -0.6377548695823906 -0.39892537365886777 0.6588833527833898
vn 0.6158124684338044 -0.6874218135730118 0.38500162849714803
vn 0.7892372206120772 -0.18424956721226704 0.5857957891472212
vn 0.2541719816072314 -0.4341167104796458 0.8642564928585638
vn 0.2389686132283917 0.10876606667822823 0.9649165480138926
vn 0.7742271097076057 0.3775403221614712 0.5079721328340951
vn -0.2518385968518593 0.8469446805631117 0.4682542356471915
vn -0.0013713672968534063 0.2906777193123325 0.9568200368131501
vn 0.8414791608964926 -0.5207851408730194 0.14385985827465606
vn -0.045013938578576954 0.20517181003704454 0.9776902749336147
vn -0.03289071824854275 -0.2474325230298701 0.9683467081578622
vn 0.08746009279085003 -0.9721415277783985 0.21746627816214922
vn -0.7548711936685112 -0.6390801246288386 -0.14746550536944342
vn -0.490488964116756 -0.8611540032677426 0.1335453433692547
vn 0.5275915789214322 0.1478582707789665 0.8365315640269912
vn 0.7173160285495537 -0.0684221994776008 0.6933802115755419
vn 0.4868166201953009 -0.240329976703985 0.8397922841983523
vn 0.02004886934734584 -0.4332968268656722 0.9010282474295869
vn -0.05717890089150597 -0.08982313816870388 0.9943150291242536
vn 0.695251281925882 0.5988235871069043 -0.39753737749403817
vn -0.18922485645540074 0.9260996021341308 -0.3263946700337455
vn -0.3560228402858463 0.6247304199725706 -0.6949529765068241
vn 0.9715258307406588 -0.12012075763281545 -0.20422674601871124
vn 0.27463591092041834 0.8892894200462973 -0.3657040385703066
vn -0.5284893760135143 0.2784411260774362 -0.8019785026729679
vn -0.5493768720947061 0.6033404887560953 -0.5780703305264794
vn -0.8207810611400569 -0.37437980293342826 -0.43146055767512465
vn -0.18719527773396175 -0.8765223725095342 -0.4434709218025033
vn -0.27777754404827254 0.9246609016654254 0.26046468657726396
vn 0.2922702370782103 -0.8241168035164961 -0.485190274717043
vn -0.8642584990540944 0.28660956035277735 -0.4134152957101993
vn 0.04573905368407276 -0.7670154585114644 -0.6399962698114214
vn 0.7606527479208833 0.14344904563362537 -0.6331111816949778
vn -0.39542985013057624 -0.6855853273585556 -0.6112348096569534
vn 0.7322848728494946 -0.6734173274274942 -0.10133098300229151
vn 0.9381065884965555 -0.0283008953924719 -0.3451884817593695
vn -0.10777899561212959 -0.8500067459596043 -0.5156279859821472
vn 0.8541463170245511 -0.26519149678859943 -0.4473338117607668
vn 0.9521754699353085 0.30524689099001595 -0.013645878293597234
vn -0.47462237673486296 0.8656018199644063 -0.15958411191862873
vn -0.4345723927856888 0.8466580338185898 -0.3071107441932969
vn 0.8358767109479704 -0.5179298652852203 -0.18182073242740146
vn -0.23406065926701045 0.7474907687158416 -0.6216696538098773
vn -0.47071905677923603 -0.780369586691186 -0.411639256816322
vn -0.03403103633038208 -0.9692276353581795 -0.24380254187409936
vn -0.35416355898627505 -0.24208361828236385 -0.9033070880080007
vn 0.5015848406144611 -0.31180021393720725 -0.8069654727771673
vn 0.5113076113993057 0.8522838702363974 0.11034822635640641
vn 0.9226895497178508 0.0617753448856647 -0.3805624805544117
vn 0.5167945438755496 0.633267625856049 -0.5761037349845128
vn -0.04014097663230324 -0.9346125631077306 -0.3533950464794368
vn 0.624171650828458 0.06433810291552129 -0.7786336486534018
vn -0.7812443372485031 -0.2709160720074808 -0.5623715563977119
vn -0.5376039341978894 0.5525673703903754 -0.6369076158398618
vn 0.29172331529821577 0.7758368470852003 -0.5594414124967095
vn -0.111029343963343 0.11098156147322356 -0.9876009203074056
vn 0.7574921975872868 -0.5451968625356043 -0.35911829760639613
vn 0.030284594739396455 -0.8503668182484121 -0.5253181109989856
vn -0.22106523665040526 0.18177930712772944 -0.9581682757453739
vn 0.8192496831230754 0.25287622381766 -0.5146684098819949
vn -0.6623652680561337 -0.7045503533973831 -0.2547175910700881
vn -0.9122885416684201 0.05133453053836717 -0.40631808071375897
vn 0.08921500990116005 0.19478549769939593 -0.976780063215018
vn 0.03437404850086198 -0.8656855281816789 -0.4994066390092028
vn 0.6140472132362047 -0.6337156110830111 -0.47047905818063435
vn -0.12830144498016832 -0.4314289007562085 -0.8929769553623937
vn -0.5464478006663381 0.5089311495914045 -0.6651194525214952
vn 0.3870968885852997 0.061829865376716066 -0.9199636224302987
vn 0.023341949741509375 -0.9876936760070437 -0.1546491375920281
vn -0.1501962810849355 -0.654116573744778 -0.741331629637268
vn 0.8450926517248969 0.15707763760949145 -0.5110235080342226
vn 0.725142576375379 -0.6662179556599603 -0.17413178768949966
vn 0.8636388933740612 -0.08469798905943017 -0.4969447781201808
vn -0.15682979728229862 0.3963457399848386 -0.9046073563045262
vn -0.34306183871122986 0.878931900838312 -0.3313416492214974
vn 0.4639522681021478 0.7900889987708897 -0.40063408110654525
vn 0.860496631509057 -0.2817829527622755 -0.42443363991811417
vn -0.22462141649257145 0.6774304189336138 -0.7004521730684395
vn -0.4773461094146589 0.8571845429634671 -0.19332705742135614
vn 0.2508044046288184 0.8883720242721002 -0.3845676755910138
vn -0.3812698601873149 -0.8388920770774577 -0.38844996682895233
vn -0.7581957736473078 -0.15846825841044831 -0.6324768611575603
vn 0.4054344947738737 -0.014329060834302888 -0.9140117879234712
vn 0.3644627545717072 -0.8162987332440036 -0.4481331037027263
vn 0.2006010830525281 -0.618658927225563 -0.7596185471947536
vn -0.28467391625925104 0.4452416847217111 -0.8489526509692948
vn 0.5666510424174915 0.6497946168052049 -0.5066296004954183
vn 0.8703369323602673 -0.14439371912648086 -0.47081214730138654
vn 0.6326965596355744 -0.013728752738160663 -0.7742781055754854
vn 0.3910877384299824 0.49750905379797217 -0.7742965337897156
vn 0.8301728890123676 0.3989123659308412 -0.3894636037633269
vn 0.9337826502743661 -0.06127638767311564 -0.35255519618963893
vn 0.7304697083822282 -0.6555167266995192 -0.19160330412894885
vn 0.8581559449827084 -0.3371444703925027 -0.3871717708906393
vn 0.009074421929155665 0.9939432381322243 -0.10951937836693613
vn 0.9520826618610156 -0.22700040103903657 -0.20496200358056468
vn 0.683035987914959 -0.31071682722466015 0.6609968929522109
vn 0.8922413060739497 -0.06821091177238812 0.4463773328145506
vn 0.5630525037397809 -0.059582824940451216 0.8242704440925197
vn -0.8801541600652277 -0.20692116254758508 0.42721456788109335
vn 0.1596376515344805 -0.6156377693995605 -0.7716903246129818
vn -0.6582413725667757 -0.5641213255038157 -0.49848312464237465
vn -0.1727296207058766 -0.18658657945370985 -0.9671349060490829
vn 0.7573955828524478 0.07453787085205092 -0.6486879348997051
f 31//31 21//21 2//2
f 22//22 31//31 2//2
f 3//3 22//22 24//24
f 6//6 24//24 2//2
f 5//5 6//6 2//2
f 22//22 2//2 24//24
f 8//8 6//6 5//5
f 7//7 8//8 5//5
f 30//30 17//17 3//3
f 18//18 30//30 3//3
f 25//25 32//32 24//24
f 6//6 25//25 24//24
f 11//11 25//25 8//8
f 12//12 11//11 8//8
f 6//6 8//8 25//25
f 27//27 33//33 19//19
f 9//9 27//27 19//19
f 16//16 11//11 12//12
f 15//15 16//16 12//12
f 9//9 19//19 30//30
f 18//18 9//9 30//30
f 19//19 10//10 20//20
f 30//30 19//19 20//20
f 30//30 20//20 17//17
f 4//4 17//17 20//20
f 17//17 31//31 22//22
f 3//3 17//17 22//22
f 4//4 23//23 17//17
f 31//31 17//17 23//23
f 23//23 1//1 21//21
f 31//31 23//23 21//21
f 26//26 32//32 25//25
f 11//11 26//26 25//25
f 9//9 18//18 26//26
f 32//32 26//26 18//18
f 32//32 18//18 3//3
f 24//24 32//32 3//3
f 13//13 28//28 33//33
f 27//27 13//13 33//33
f 28//28 14//14 29//29
f 33//33 28//28 29//29
f 33//33 29//29 10//10
f 19//19 33//33 10//10
f 35//35 54//54 64//64
f 55//55 35//35 64//64
f 35//35 55//55 39//39
f 38//38 35//35 39//39
f 57//57 39//39 55//55
f 36//36 57//57 55//55
f 68//68 69//69 67//67
f 70//70 67//67 69//69
f 74//74 71//71 72//72
f 73//73 74//74 72//72
f 77//77 78//78 76//76
f 75//75 76//76 78//78
f 39//39 58//58 41//41
f 45//45 41//41 44//44
f 58//58 44//44 41//41
f 52//52 66//66 60//60
f 42//42 52//52 60//60
f 81//81 82//82 79//79
f 80//80 81//81 79//79
f 85//85 86//86 83//83
f 84//84 85//85 83//83
f 53//53 43//43 52//52
f 63//63 53//53 52//52
f 37//37 53//53 63//63
f 50//50 37//37 63//63
f 89//89 90//90 87//87
f 88//88 89//89 87//87
f 64//64 56//56 37//37
f 50//50 64//64 37//37
f 93//93 94//94 91//91
f 92//92 93//93 91//91
f 58//58 65//65 59//59
f 44//44 58//58 59//59
f 51//51 42//42 65//65
f 59//59 65//65 42//42
f 97//97 98//98 96//96
f 95//95 96//96 98//98
f 101//101 102//102 100//100
f 99//99 100//100 102//102
f 104//104 105//105 106//106
f 103//103 104//104 106//106
f 109//109 110//110 107//107
f 108//108 109//109 107//107
f 10//10 43//43 20//20
f 53//53 20//20 43//43
f 21//21 1//1 34//34
f 54//54 21//21 34//34
f 56//56 23//23 4//4
f 37//37 56//56 4//4
f 61//61 28//28 13//13
f 46//46 61//61 13//13
f 5//5 38//38 40//40
f 7//7 5//5 40//40
f 5//5 2//2 38//38
f 35//35 38//38 2//2
f 112//112 113//113 114//114
f 111//111 112//112 114//114
f 34//34 1//1 23//23
f 56//56 34//34 23//23
f 2//2 21//21 54//54
f 35//35 2//2 54//54
f 44//44 59//59 26//26
f 11//11 44//44 26//26
f 8//8 41//41 45//45
f 12//12 8//8 45//45
f 59//59 42//42 9//9
f 26//26 59//59 9//9
f 42//42 60//60 9//9
f 27//27 9//9 60//60
f 20//20 53//53 4//4
f 37//37 4//4 53//53
f 40//40 41//41 8//8
f 7//7 40//40 8//8
f 12//12 45//45 48//48
f 15//15 12//12 48//48
f 29//29 62//62 10//10
f 43//43 10//10 62//62
f 118//118 115//115 116//116
f 117//117 118//118 116//116
f 60//60 46//46 13//13
f 27//27 60//60 13//13
f 44//44 11//11 49//49
f 16//16 49//49 11//11
f 48//48 49//49 16//16
f 15//15 48//48 16//16
f 70//70 39//39 67//67
f 41//41 67//67 39//39
f 68//68 67//67 41//41
f 40//40 68//68 41//41
f 40//40 38//38 68//68
f 69//69 68//68 38//38
f 38//38 39//39 69//69
f 70//70 69//69 39//39
f 50//50 63//63 71//71
f 74//74 50//50 71//71
f 71//71 63//63 51//51
f 72//72 71//71 51//51
f 36//36 73//73 72//72
f 51//51 36//36 72//72
f 36//36 50//50 74//74
f 73//73 36//36 74//74
f 78//78 65//65 75//75
f 58//58 75//75 65//65
f 76//76 75//75 39//39
f 58//58 39//39 75//75
f 39//39 57//57 76//76
f 77//77 76//76 57//57
f 57//57 65//65 78//78
f 77//77 57//57 78//78
f 82//82 44//44 79//79
f 49//49 79//79 44//44
f 80//80 79//79 49//49
f 48//48 80//80 49//49
f 45//45 81//81 80//80
f 48//48 45//45 80//80
f 45//45 44//44 82//82
f 81//81 45//45 82//82
f 86//86 52//52 42//42
f 83//83 86//86 42//42
f 51//51 84//84 83//83
f 42//42 51//51 83//83
f 63//63 85//85 51//51
f 84//84 51//51 85//85
f 63//63 52//52 86//86
f 85//85 63//63 86//86
f 90//90 64//64 50//50
f 87//87 90//90 50//50
f 87//87 50//50 36//36
f 88//88 87//87 36//36
f 55//55 89//89 36//36
f 88//88 36//36 89//89
f 55//55 64//64 90//90
f 89//89 55//55 90//90
f 94//94 34//34 56//56
f 91//91 94//94 56//56
f 92//92 91//91 64//64
f 56//56 64//64 91//91
f 93//93 92//92 64//64
f 54//54 93//93 64//64
f 54//54 34//34 94//94
f 93//93 54//54 94//94
f 98//98 51//51 95//95
f 65//65 95//95 51//51
f 96//96 95//95 57//57
f 65//65 57//57 95//95
f 57//57 36//36 96//96
f 97//97 96//96 36//36
f 36//36 51//51 98//98
f 97//97 36//36 98//98
f 102//102 61//61 46//46
f 99//99 102//102 46//46
f 100//100 99//99 46//46
f 60//60 100//100 46//46
f 60//60 66//66 101//101
f 100//100 60//60 101//101
f 66//66 61//61 101//101
f 102//102 101//101 61//61
f 106//106 47//47 61//61
f 103//103 106//106 61//61
f 66//66 104//104 103//103
f 61//61 66//66 103//103
f 66//66 62//62 105//105
f 104//104 66//66 105//105
f 62//62 47//47 105//105
f 106//106 105//105 47//47
f 110//110 62//62 66//66
f 107//107 110//110 66//66
f 108//108 107//107 66//66
f 52//52 108//108 66//66
f 43//43 109//109 108//108
f 52//52 43//43 108//108
f 43//43 62//62 110//110
f 109//109 43//43 110//110
f 111//111 114//114 47//47
f 62//62 111//111 47//47
f 111//111 62//62 29//29
f 112//112 111//111 29//29
f 29//29 14//14 113//113
f 112//112 29//29 113//113
f 113//113 14//14 47//47
f 114//114 113//113 47//47
f 47//47 14//14 115//115
f 118//118 47//47 115//115
f 115//115 14//14 28//28
f 116//116 115//115 28//28
f 61//61 117//117 116//116
f 28//28 61//61 116//116
f 61//61 47//47 118//118
f 117//117 61//61 118//118
