# generated by HE_OBJExport
o 0
v -175.0 -175.0 0.0
v -59.5721549987793 -57.03371047973633 84.49917602539062
v -24.28965950012207 89.1939926147461 142.17987060546875
v -36.84196472167969 -38.42032241821289 45.38144302368164
v 70.3436050415039 -61.09959411621094 128.7788848876953
v 42.33349609375 57.66682434082031 292.00018310546875
v 17.391559600830078 92.81250762939453 238.67689514160156
v 175.0 -175.0 0.0
v 160.44183349609375 15.874065399169922 120.50787353515625
v 121.66866302490234 2.475025177001953 11.04625415802002
v -27.562183380126953 224.88980102539062 98.32010650634766
v -41.33313751220703 317.33355712890625 1.52587890625E-4
v 86.03630065917969 180.41465759277344 212.29852294921875
v 263.4970397949219 177.39596557617188 78.60494995117188
v 134.34048461914062 296.7725830078125 128.44357299804688
v 192.50579833984375 61.39190673828125 12.108597755432129
v 365.0002746582031 -263.999755859375 2.74658203125E-4
v 94.16241455078125 535.1034545898438 81.83572387695312
v 270.45062255859375 202.00177001953125 46.68841552734375
v 456.0001220703125 236.00001525878906 6.103515625E-5
v 20.214292526245117 146.82972717285156 244.82424926757812
v 43.7486457824707 135.79351806640625 260.9816589355469
v 43.909156799316406 208.4957275390625 235.2487030029297
v 38.07655715942383 171.58811950683594 255.4011688232422
v 59.22471237182617 187.97256469726562 230.70262145996094
v -10.357254028320312 286.691650390625 104.39987182617188
v 4.99509859085083 251.68980407714844 168.2467498779297
v 24.20878028869629 249.2683868408203 185.84564208984375
v 17.165023803710938 295.9117431640625 104.34060668945312
v 20.11598014831543 188.17295837402344 243.68402099609375
v 70.86282348632812 255.2396240234375 176.38388061523438
v -8.595381736755371 224.82476806640625 163.2832794189453
v -22.31252670288086 105.48957061767578 206.25965881347656
v -25.6712589263916 108.1767807006836 262.91705322265625
v -19.85611343383789 130.4258270263672 272.3144836425781
v -16.584665298461914 132.53152465820312 237.6081085205078
v -3.7675857543945312 173.9567108154297 199.62496948242188
v 29.377309799194336 234.28826904296875 274.5639953613281
v 29.375070571899414 240.94786071777344 247.80882263183594
v 22.2487850189209 219.4696807861328 224.3450469970703
v 40.35567092895508 229.5299835205078 284.6983337402344
v 41.740074157714844 235.2673797607422 262.9499206542969
v 48.988807678222656 238.42144775390625 206.0494842529297
v -6.0771613121032715 214.78514099121094 228.85302734375
v -4.757161617279053 194.18077087402344 255.7873077392578
v 6.02089786529541 195.5625762939453 222.15708923339844
v -5.126609802246094 202.08673095703125 270.6424560546875
v -4.8372602462768555 211.5078887939453 250.87686157226562
v 4.582611083984375 223.74957275390625 200.9104766845703
v 9.354574203491211 239.58782958984375 253.1375732421875
v 9.443644523620605 245.41392517089844 230.54246520996094
v 11.926996231079102 240.89111328125 269.7911682128906
v 14.00024700164795 244.973876953125 243.51992797851562
v 25.16374969482422 195.55490112304688 298.3380432128906
v 26.4490909576416 209.74456787109375 281.28448486328125
v 34.86784744262695 189.70477294921875 307.504150390625
v 36.837806701660156 202.57440185546875 291.4002380371094
v 60.75054931640625 232.26454162597656 279.4007263183594
v 63.29297637939453 239.5741729736328 257.04437255859375
v 62.226036071777344 220.5541534423828 274.99285888671875
v 65.89640045166016 242.68121337890625 240.66412353515625
v 31.174158096313477 293.23345947265625 208.61767578125
v 26.913190841674805 291.8989562988281 170.5723114013672
v 37.453853607177734 284.4776611328125 226.8998565673828
v 40.01655197143555 281.6995849609375 213.9910888671875
v -33.43428421020508 135.61569213867188 180.9576873779297
v -33.29952621459961 196.99026489257812 156.70773315429688
v -48.859962463378906 163.06288146972656 215.14874267578125
v -38.01715087890625 186.63339233398438 187.71664428710938
v 2.3680803775787354 176.4632110595703 261.1606750488281
v 9.18725299835205 165.05734252929688 294.5758361816406
v 8.636723518371582 183.997314453125 295.6471252441406
v 5.305025577545166 183.06668090820312 276.64971923828125
v 8.734594345092773 215.67501831054688 260.84521484375
v 9.294716835021973 204.47434997558594 277.9112854003906
v 12.61318302154541 202.23463439941406 295.4967041015625
v 12.8212251663208 214.7701416015625 277.685302734375
v -12.006080627441406 262.87786865234375 203.26585388183594
v -13.272241592407227 279.9546203613281 171.31417846679688
v -12.932608604431152 269.578125 220.2068328857422
v -16.08967399597168 280.9013977050781 200.4877166748047
vn -0.8018915657768347 0.5638221592347503 -0.19767268271524074
vn -0.9662627405894091 0.0804301379933432 0.2446779700974649
vn -0.9537295105735174 -0.2855129914441738 0.09424623269817232
vn -0.8522619640795654 0.25856987057569236 -0.4547429676352467
vn -0.10696329860286082 -0.6153941194944058 0.7809282492288905
vn 0.0960589979176535 -0.14810064768055745 0.9842961277357825
vn -0.45849420154525106 -0.4892303674923306 0.7419142232581215
vn 0.5198857396965787 -0.5371586611188299 0.664213362139883
vn 0.6312249330163912 -0.2587286391764762 0.7311734234833357
vn -0.418250097645943 -0.045350388721238026 -0.9071990950513519
vn -0.9764934673615125 0.19984361219970861 -0.08076533206310134
vn -0.7372789288351809 0.2924856058712956 -0.6089925709347772
vn 0.5685295560397713 0.2689491261982853 0.7774577232405627
vn 0.5685496476449783 0.3950747820893827 0.7215727369571261
vn 0.5127560206155554 0.5454734604419267 0.6629781046731559
vn 0.2276199747926771 0.15157399952122988 -0.9618806941323437
vn 0.009483149218989344 0.006628208348020326 -0.9999330661274212
vn -0.42528969072716577 0.7805679530227599 0.4580855265941613
vn 0.6249871218236328 0.758003796063445 -0.18660477675563167
vn 0.3766232440308198 0.6921688366927199 0.6156762408662108
vn -0.332183199491026 0.07637307875925957 0.9401177983724897
vn -0.027090638909508264 0.23473335689477526 0.9716822260617843
vn 0.3997992293903615 0.08693656089183083 0.9124706080522124
vn 0.20400205389628698 -0.2509562721383722 0.9462579518717439
vn 0.5600114178386707 0.10693611916034741 0.8215545498074037
vn -0.682139666062277 0.5887461034683572 0.43366288939137015
vn 0.15787809922009696 0.9358193515139492 0.3151454380419632
vn -0.46478067128721573 0.7818442564081667 0.41557007389773154
vn -0.45768712440697773 0.6761378572955508 0.577373444214274
vn -0.4720116271694155 -0.08256178889860676 0.8777178218714387
vn 0.5530018535180871 0.5913893830992499 0.5868965390620807
vn -0.8932149083796542 0.34008087304493223 0.2941294395964517
vn -0.9017754169647851 -0.4272752328751442 0.06509203276499347
vn 0.07715166962478445 -0.7593286407120264 0.6461173540994966
vn 0.08567786443689593 0.43447946416978844 0.8965974005986557
vn -0.7672141176510789 0.6075957858281614 0.20545038019126494
vn -0.8028431893452262 0.07706732385103458 0.5911881603317384
vn -0.9151753250456958 -0.3286547472895091 0.23332419829836334
vn -0.48073190991627757 0.8653171944973563 0.1418555028734244
vn -0.4086832773431995 0.5589836245081422 0.7214674534251436
vn 0.43330286031811 -0.8047211726296668 0.405798552931967
vn 0.8165772698263698 0.5635149069021681 0.12511000000780417
vn 1.940655618461604E-4 0.7949773441433965 0.6066390892757154
vn -0.8439624722301374 0.5255178618197359 0.10750963852421525
vn -0.2817213365395783 -0.8890378581225161 0.3608944102688244
vn -0.6892069257318487 0.24859345342083777 0.6805843874491656
vn 0.9562904622878422 -0.1601971650866763 0.24463323575405113
vn 0.42366914056038096 0.8647809351591151 0.26955220926965956
vn -0.7016486044033926 0.5374048361852911 0.46785176924260075
vn -0.9157402268465099 -0.35724607531594155 0.18383437819531862
vn -0.6547236978734263 0.7485893292291336 0.10464652697162152
vn 0.4582143945000766 -0.7151179033404439 0.527869257482282
vn 0.626042543718035 0.7632257359829718 0.15986622341289894
vn -0.9398916157228858 -0.30841134831846323 0.1465816868582518
vn -0.47053347250191707 0.863334980596212 0.1823484645787455
vn 0.33614087553392463 -0.8853379369164937 0.3212258539590695
vn 0.8562571771128379 0.49594713970498633 0.14443019511583058
vn -0.9233598234129333 -0.045261793059466676 0.3812584511796148
vn -0.7141447671113355 0.6817406593700441 0.15882986170488808
vn 0.3182132058243331 -0.7307914700750588 0.6038908700291262
vn 0.5611835623955017 0.8077047588827875 0.18079278684502914
vn -0.9373759196948156 -0.09223170935940044 0.33588643462477263
vn -0.3613662993440655 0.9263688864292963 0.1060899804605536
vn 0.03905387602741575 -0.1965738326050299 0.979710938543714
vn 0.8378026327212315 0.4746557995958338 0.26979366285258266
vn -0.5959018793666601 -0.6049550979212046 0.5281385042452675
vn -0.9511370003205442 0.30794352190589036 0.022565325998828878
vn 0.20168104618186486 0.02975438915090151 0.9789991991504616
vn -0.440482822802727 0.7239323263463223 0.530939610206795
vn -0.9900946713668238 -0.11829771679817619 0.07561872738521717
vn 0.22421547706399492 -0.8626212040047421 0.4534446804698166
vn 0.6777877706574389 0.6894783495322158 0.2553886126544228
vn -0.5744851868813143 0.8065435746017168 0.1394784295962151
vn -0.6893360888427369 0.713428670107685 0.12583834585442616
vn -0.9165724637552771 -0.3860922646817213 0.10405614752873012
vn 0.39632517477685464 -0.8424645250987616 0.3649381862565411
vn 0.6766710444548917 0.7146423501233181 0.1772078130516455
vn -0.9649211754069076 -0.24085109272275004 0.10448864237614153
vn -0.3210294856717794 0.9421318935593253 0.09657931697642674
vn 0.07132783737032472 -0.12687643259783207 0.9893506509157005
vn 0.8875121551154755 0.437865997140734 0.14351147365362468
f 4//4 1//1 2//2
f 3//3 4//4 2//2
f 3//3 2//2 5//5
f 7//7 3//3 5//5
f 6//6 7//7 5//5
f 9//9 6//6 5//5
f 8//8 9//9 5//5
f 11//11 12//12 10//10
f 3//3 11//11 10//10
f 4//4 3//3 10//10
f 13//13 6//6 9//9
f 15//15 13//13 14//14
f 9//9 14//14 13//13
f 10//10 12//12 16//16
f 17//17 10//10 16//16
f 16//16 12//12 15//15
f 19//19 16//16 15//15
f 18//18 15//15 12//12
f 19//19 15//15 14//14
f 20//20 19//19 14//14
f 21//21 7//7 22//22
f 6//6 22//22 7//7
f 23//23 24//24 25//25
f 22//22 25//25 24//24
f 29//29 26//26 27//27
f 28//28 29//29 27//27
f 24//24 30//30 21//21
f 22//22 24//24 21//21
f 22//22 6//6 13//13
f 25//25 22//22 13//13
f 31//31 25//25 13//13
f 15//15 31//31 13//13
f 18//18 29//29 15//15
f 31//31 15//15 29//29
f 18//18 12//12 29//29
f 26//26 29//29 12//12
f 26//26 12//12 11//11
f 32//32 26//26 11//11
f 7//7 34//34 33//33
f 3//3 7//7 33//33
f 35//35 34//34 7//7
f 21//21 35//35 7//7
f 36//36 35//35 21//21
f 37//37 36//36 21//21
f 37//37 3//3 33//33
f 36//36 37//37 33//33
f 28//28 40//40 39//39
f 38//38 39//39 40//40
f 38//38 40//40 23//23
f 41//41 38//38 23//23
f 42//42 41//41 23//23
f 43//43 42//42 23//23
f 43//43 28//28 39//39
f 42//42 43//43 39//39
f 44//44 32//32 37//37
f 45//45 44//44 37//37
f 46//46 47//47 45//45
f 37//37 46//46 45//45
f 48//48 47//47 46//46
f 49//49 48//48 46//46
f 49//49 32//32 44//44
f 48//48 49//49 44//44
f 27//27 49//49 51//51
f 50//50 51//51 49//49
f 50//50 49//49 40//40
f 52//52 50//50 40//40
f 53//53 52//52 40//40
f 28//28 53//53 40//40
f 28//28 27//27 51//51
f 53//53 28//28 51//51
f 40//40 30//30 55//55
f 54//54 55//55 30//30
f 54//54 30//30 24//24
f 56//56 54//54 24//24
f 57//57 56//56 24//24
f 23//23 57//57 24//24
f 23//23 40//40 55//55
f 57//57 23//23 55//55
f 43//43 23//23 59//59
f 58//58 59//59 23//23
f 58//58 23//23 60//60
f 25//25 60//60 23//23
f 60//60 25//25 61//61
f 31//31 61//61 25//25
f 31//31 43//43 61//61
f 59//59 61//61 43//43
f 63//63 29//29 28//28
f 62//62 63//63 28//28
f 62//62 28//28 64//64
f 43//43 64//64 28//28
f 65//65 64//64 43//43
f 31//31 65//65 43//43
f 31//31 29//29 63//63
f 65//65 31//31 63//63
f 3//3 66//66 67//67
f 11//11 3//3 67//67
f 37//37 68//68 66//66
f 3//3 37//37 66//66
f 69//69 68//68 37//37
f 32//32 69//69 37//37
f 67//67 69//69 32//32
f 11//11 67//67 32//32
f 70//70 37//37 21//21
f 71//71 70//70 21//21
f 30//30 72//72 71//71
f 21//21 30//30 71//71
f 46//46 73//73 30//30
f 72//72 30//30 73//73
f 46//46 37//37 70//70
f 73//73 46//46 70//70
f 74//74 49//49 46//46
f 75//75 74//74 46//46
f 75//75 46//46 30//30
f 76//76 75//75 30//30
f 77//77 76//76 30//30
f 40//40 77//77 30//30
f 40//40 49//49 74//74
f 77//77 40//40 74//74
f 78//78 79//79 32//32
f 26//26 32//32 79//79
f 49//49 80//80 78//78
f 32//32 49//49 78//78
f 27//27 81//81 80//80
f 49//49 27//27 80//80
f 79//79 81//81 27//27
f 26//26 79//79 27//27
