# generated by HE_OBJExport
o 0
v -175.0 -175.0 0.0
v -72.78180694580078 -177.9334716796875 -0.9127349853515625
v 50.3721809387207 -148.575439453125 42.48009490966797
v 175.0 -175.0 0.0
v -139.1640625 -94.53400421142578 183.27682495117188
v -66.82559204101562 -107.36610412597656 133.98973083496094
v 39.994361877441406 -70.70291137695312 133.580322265625
v 131.41941833496094 -67.1710433959961 66.7461929321289
v -143.71728515625 58.616455078125 223.4167938232422
v -82.80612182617188 14.220054626464844 344.583740234375
v 72.43338775634766 27.243131637573242 152.28350830078125
v 138.0518035888672 59.53760528564453 67.41694641113281
v -175.0 175.0 0.0
v -79.89014434814453 98.07782745361328 169.60740661621094
v 61.4123420715332 116.16514587402344 114.62031555175781
v 175.0 175.0 0.0
v -99.73391723632812 -78.45621490478516 238.5130157470703
v -77.06526947021484 -52.45489501953125 311.4443359375
v -122.92813110351562 21.24740982055664 340.9043884277344
v -132.52320861816406 -28.844755172729492 268.47589111328125
v -112.153564453125 -38.58582305908203 334.1142272949219
v -86.67250061035156 -78.3634262084961 266.7277526855469
v -76.00496673583984 -89.25260162353516 217.05809020996094
v -80.11761474609375 -71.54446411132812 280.39508056640625
v -94.42769622802734 -62.213104248046875 312.31134033203125
v -109.88241577148438 -28.15500831604004 390.2696533203125
v -82.3746337890625 -38.01544952392578 380.04693603515625
v -84.49358367919922 -0.34773579239845276 402.5319519042969
v -117.48216247558594 7.1272501945495605 401.10980224609375
v -132.91094970703125 -9.958634376525879 308.61907958984375
v -126.38561248779297 -14.061715126037598 347.641357421875
v -141.5970001220703 21.27286148071289 329.2408142089844
v -142.03636169433594 39.18159866333008 276.03533935546875
v -132.39064025878906 -82.47294616699219 236.32620239257812
v -110.3000259399414 -75.11114501953125 278.91412353515625
v -115.04582214355469 -64.47359466552734 323.66436767578125
v -129.3876953125 -53.01171112060547 292.32208251953125
v -79.05584716796875 -39.8375244140625 378.94708251953125
v -82.21798706054688 -0.1984737068414688 404.6196594238281
v -82.09950256347656 -9.286779403686523 439.425537109375
v -80.41685485839844 -32.540740966796875 418.3331298828125
v -80.95181274414062 -48.263633728027344 378.54736328125
v -84.49956512451172 -45.09160232543945 417.1675109863281
v -106.00495910644531 -38.77800750732422 426.6088562011719
v -108.76231384277344 -38.99549102783203 394.7309265136719
v -61.65869903564453 -42.663055419921875 270.69573974609375
v -54.277950286865234 -79.52440643310547 193.87698364257812
v 24.250680923461914 -53.063026428222656 183.21543884277344
v 49.571014404296875 20.85789680480957 199.5813446044922
v 35.59897994995117 91.72003936767578 171.1548309326172
v -55.15268325805664 77.6900405883789 214.49896240234375
v -64.78575897216797 8.949918746948242 298.520751953125
v -114.26404571533203 15.815136909484863 438.0181884765625
v -90.01244354248047 9.33944034576416 440.63751220703125
v -87.23458099365234 12.621064186096191 404.4317321777344
v -117.9499282836914 18.87693977355957 401.2616271972656
v -107.5068588256836 -24.1378231048584 441.1164245605469
v -86.05378723144531 -30.263263702392578 431.7711486816406
v -88.4805908203125 -7.211781024932861 451.0109558105469
v -112.19849395751953 0.9421306848526001 450.25067138671875
vn 0.03600265699686605 -0.915818005648195 0.3999764858335157
vn 0.08611518642626574 -0.8756532093729247 0.47520062245504946
vn 0.23650979815817988 -0.7049467382627616 0.6686652462838715
vn 0.3281252686294686 -0.5546286893593176 0.7646704028706779
vn -0.3759847395216463 -0.8755057510070168 0.30352126054113465
vn 0.3275322521318361 -0.8717287552922629 0.3644332600217073
vn 0.5118383434736861 -0.6128784470344527 0.6019979396233432
vn 0.5357915569611172 -0.3821039871486077 0.7529435241067676
vn -0.5966699876753614 0.7281734414687777 0.3372660151082536
vn 0.6139190877382442 0.7245020136205772 0.3133690890473577
vn 0.8007150777300123 0.016784818204614284 0.5988101820891647
vn 0.6943768172911142 0.05197830614516475 0.7177319076778892
vn -0.12049362310113225 0.8939668141407603 0.4316301912598118
vn 0.13418580905467015 0.8833065637510784 0.44918112502932006
vn 0.5643772246071 0.5703581423074849 0.5967997468568007
vn 0.6457567556339706 0.2827373392453232 0.7092656833299941
vn 0.04456782507402385 -0.9573122849317632 0.28559919132745704
vn 0.7227842979783567 -0.6207997905959404 0.30362885006529033
vn -0.5139405207031341 0.7022610756261892 0.4926403585169804
vn -0.9737927779096684 -0.1564913309648007 0.16503965894243813
vn -0.6122192019617007 -0.5992080823616451 0.5158849898784208
vn -0.22194180551467974 -0.9427325001759951 0.24899250606554685
vn 0.33807931585881124 -0.9041430241789326 0.26120445634983375
vn 0.5533480706467092 -0.7253331309417609 0.4095091718994667
vn 0.02637409564253237 -0.8930647437432494 0.4491545063358966
vn -0.96665472314237 -0.18842331246335264 0.1734223213628678
vn 0.5163322578650319 -0.6900082980524227 0.5072371714561122
vn 0.47628705426825213 0.7048845346236493 0.5256314628947477
vn -0.9712471434013777 -0.14808798571425988 0.18641066203883522
vn -0.9510437527171673 -0.3031593396811688 0.060084899781270504
vn -0.7893094647209222 -0.28314590838567505 0.5448109428658922
vn -0.5600693443405431 0.4354741659563192 0.7047585262447007
vn -0.9641491392131764 0.21773929067462938 0.15167741641721225
vn -0.633517443419521 -0.7380458511486292 0.23225841316406518
vn 0.19243037325261192 -0.9314196584611304 0.30891418109567537
vn -0.45596810206721394 -0.6514020370976145 0.606439177463248
vn -0.9287310604032286 -0.25416371008408706 0.269924852354478
vn 0.896855613670917 -0.4297660593216515 0.10464770653053805
vn 0.8413549305807111 0.5248817473357777 0.12892258181275884
vn -0.2751925281736003 0.9103142409932381 0.3091877343659138
vn -0.41434538847072555 -0.884754164187872 0.213372838021299
vn 0.20823444610329517 -0.975452121984201 0.07163499963407258
vn 0.9596190045340505 0.06222315317881862 0.27433491455803366
vn -0.9334335405087327 -0.1392876199425642 0.33060669137824145
vn -0.6294899864305809 -0.775189317431381 0.053140183702135205
vn 0.8050764170110107 -0.2854406890576395 0.519976514664858
vn 0.6048078653764277 -0.5802002478366077 0.5455044622999411
vn 0.6643919089675118 -0.46940650039473614 0.5815848422076285
vn 0.8070659900582415 -0.01921453586180306 0.5901485315604249
vn 0.5752231990945489 0.4811434515266218 0.6615279663600643
vn 0.42799476829112776 0.6355114746154865 0.6426084686241488
vn 0.755058824133922 0.23645865587580708 0.611533708113384
vn -0.9339287445359306 -0.010193186710632358 0.3573138663335399
vn 0.9040101217994622 0.21346541688183088 0.37040277466507665
vn 0.5372585451209813 0.8399097379011872 0.07684326823636486
vn -0.29636432126042656 0.9499064995122003 0.09922616221705419
vn -0.5306739121667728 -0.7217553363883592 0.44435845141117636
vn 0.3794840834780921 -0.7493975726157659 0.542581891095151
vn 0.7347385384337146 0.2757536253020027 0.6197735217586271
vn -0.5492608588451664 0.17721315048921943 0.8166443584782519
f 5//5 1//1 6//6
f 17//17 5//5 6//6
f 2//2 6//6 1//1
f 6//6 2//2 3//3
f 7//7 6//6 3//3
f 8//8 7//7 3//3
f 4//4 8//8 3//3
f 24//24 25//25 22//22
f 23//23 24//24 22//22
f 11//11 7//7 8//8
f 12//12 11//11 8//8
f 14//14 13//13 9//9
f 10//10 14//14 9//9
f 19//19 10//10 9//9
f 16//16 15//15 12//12
f 11//11 12//12 15//15
f 59//59 60//60 57//57
f 58//58 59//59 57//57
f 32//32 33//33 30//30
f 31//31 32//32 30//30
f 37//37 34//34 35//35
f 36//36 37//37 35//35
f 25//25 21//21 17//17
f 22//22 25//25 17//17
f 22//22 17//17 23//23
f 6//6 23//23 17//17
f 18//18 24//24 23//23
f 6//6 18//18 23//23
f 18//18 21//21 25//25
f 24//24 18//18 25//25
f 29//29 19//19 26//26
f 21//21 26//26 19//19
f 44//44 45//45 43//43
f 42//42 43//43 45//45
f 38//38 39//39 41//41
f 40//40 41//41 39//39
f 55//55 56//56 53//53
f 54//54 55//55 53//53
f 33//33 9//9 20//20
f 30//30 33//33 20//20
f 31//31 30//30 21//21
f 20//20 21//21 30//30
f 19//19 32//32 31//31
f 21//21 19//19 31//31
f 19//19 9//9 33//33
f 32//32 19//19 33//33
f 20//20 5//5 34//34
f 37//37 20//20 34//34
f 34//34 5//5 17//17
f 35//35 34//34 17//17
f 21//21 36//36 35//35
f 17//17 21//21 35//35
f 21//21 20//20 37//37
f 36//36 21//21 37//37
f 51//51 52//52 46//46
f 50//50 51//51 49//49
f 48//48 49//49 46//46
f 47//47 48//48 46//46
f 46//46 49//49 51//51
f 41//41 27//27 38//38
f 18//18 38//38 27//27
f 18//18 10//10 38//38
f 39//39 38//38 10//10
f 10//10 28//28 39//39
f 40//40 39//39 28//28
f 40//40 28//28 41//41
f 27//27 41//41 28//28
f 45//45 21//21 42//42
f 18//18 42//42 21//21
f 27//27 43//43 42//42
f 18//18 27//27 42//42
f 27//27 26//26 43//43
f 44//44 43//43 26//26
f 26//26 21//21 45//45
f 44//44 26//26 45//45
f 52//52 10//10 18//18
f 46//46 52//52 18//18
f 46//46 18//18 47//47
f 6//6 47//47 18//18
f 47//47 6//6 7//7
f 48//48 47//47 7//7
f 49//49 48//48 11//11
f 7//7 11//11 48//48
f 15//15 50//50 11//11
f 49//49 11//11 50//50
f 15//15 14//14 50//50
f 51//51 50//50 14//14
f 14//14 10//10 51//51
f 52//52 51//51 10//10
f 56//56 19//19 29//29
f 53//53 56//56 29//29
f 53//53 29//29 54//54
f 28//28 54//54 29//29
f 55//55 54//54 28//28
f 10//10 55//55 28//28
f 10//10 19//19 56//56
f 55//55 10//10 56//56
f 60//60 29//29 57//57
f 26//26 57//57 29//29
f 57//57 26//26 58//58
f 27//27 58//58 26//26
f 28//28 59//59 58//58
f 27//27 28//28 58//58
f 28//28 29//29 60//60
f 59//59 28//28 60//60
