# generated by HE_OBJExport
o 0
v -175.0 -175.0 0.0
v -58.70994567871094 -146.06459045410156 20.46709632873535
v 59.94367980957031 -146.1465301513672 20.312082290649414
v 175.0 -175.0 0.0
v -146.05752563476562 -58.733306884765625 20.45621109008789
v -49.788246154785156 -49.88726806640625 47.76238250732422
v 50.6083984375 -49.90937805175781 47.56110763549805
v 146.3966827392578 -58.681541442871094 20.352481842041016
v -146.15989685058594 59.92673110961914 20.30418586730957
v -49.94326400756836 50.49618148803711 47.577552795410156
v 50.541969299316406 50.61708068847656 47.38694381713867
v 146.43157958984375 59.94082260131836 20.212697982788086
v -175.0 175.0 0.0
v -58.71648025512695 146.3389434814453 20.374610900878906
v 59.911903381347656 146.41641235351562 20.2276611328125
v 175.0 175.0 0.0
vn -0.1842563109721914 -0.1841703549333313 0.9654692601168874
vn -0.09189810034449791 -0.2296656757545592 0.9689212643622155
vn 0.09366493660914732 -0.2291703859222786 0.9688693481921277
vn 0.18491584171121833 -0.18322230140303575 0.9655235469696256
vn -0.2297395722563692 -0.09199220575005573 0.9688948152512221
vn -0.11507829669138174 -0.11514992018642849 0.9866597597508826
vn 0.1169787929128533 -0.11482196228983506 0.986474469504692
vn 0.23013653837449113 -0.09138175391210113 0.9688583739416997
vn -0.2292818684323081 0.09345541300074407 0.9688632053025081
vn -0.11488467050636776 0.11682130304735304 0.9864858314425817
vn 0.11665313899475992 0.11662770618730016 0.9863011828605692
vn 0.22961547525027964 0.09311095747254292 0.9688173631413376
vn -0.1833731019794638 0.18477450342823482 0.9655219771467031
vn -0.09154929612554724 0.23004127526837848 0.9688651805343275
vn 0.09305727079327081 0.22955710646597735 0.968836353169861
vn 0.18391584486771542 0.18384252741857587 0.9655966482537854
f 5//5 1//1 2//2
f 6//6 5//5 2//2
f 6//6 2//2 7//7
f 3//3 7//7 2//2
f 8//8 7//7 3//3
f 4//4 8//8 3//3
f 10//10 9//9 5//5
f 6//6 10//10 5//5
f 11//11 10//10 6//6
f 7//7 11//11 6//6
f 12//12 11//11 8//8
f 7//7 8//8 11//11
f 14//14 13//13 9//9
f 10//10 14//14 9//9
f 15//15 14//14 11//11
f 10//10 11//11 14//14
f 15//15 11//11 12//12
f 16//16 15//15 12//12
