# generated by HE_OBJExport
o 0
v -175.0 -175.0 0.0
v -61.489864349365234 -125.53382873535156 71.45563507080078
v -48.58859634399414 -45.9420280456543 125.55391693115234
v -132.1082000732422 -58.28133010864258 77.68572235107422
v 62.65234375 -125.72457122802734 70.93709564208984
v 48.339805603027344 -45.74567794799805 124.77134704589844
v 175.0 -175.0 0.0
v 132.09564208984375 -58.52945327758789 78.13895416259766
v -49.153892517089844 50.35368728637695 135.82859802246094
v -133.58389282226562 66.81258392333984 90.11673736572266
v 48.12226104736328 50.90972900390625 135.12135314941406
v 133.30740356445312 66.22272491455078 91.28994750976562
v -63.43776321411133 138.09075927734375 98.5775375366211
v -175.0 175.0 0.0
v 65.37345886230469 138.3079833984375 97.30374145507812
v 175.0 175.0 0.0
v -139.4526824951172 -135.4635467529297 44.087005615234375
v -107.6220703125 -42.39483642578125 116.89295196533203
v -42.47325134277344 -35.60196304321289 182.05581665039062
v -48.338462829589844 -98.63627624511719 109.98657989501953
v 42.834232330322266 -35.8498420715332 181.95008850097656
v 107.59757995605469 -42.29302215576172 117.44031524658203
v 139.57960510253906 -135.3332977294922 44.22972869873047
v 49.36949157714844 -98.88886260986328 109.50955200195312
v -113.41956329345703 56.475826263427734 139.90548706054688
v 113.6058349609375 56.87242889404297 139.85275268554688
v 52.955692291259766 119.81471252441406 147.91912841796875
v -52.540809631347656 119.93501281738281 147.8088836669922
v 10.74877643585205 35.058414459228516 257.3627014160156
v -0.010006774216890335 40.83830261230469 233.02268981933594
v 45.09425735473633 49.82489776611328 216.07144165039062
v 35.67510223388672 39.7601203918457 242.2799530029297
v 29.636789321899414 11.29718017578125 244.33258056640625
v 34.72504806518555 2.4955921173095703 217.44161987304688
v 10.713604927062988 11.232048034667969 259.78582763671875
v 0.18747562170028687 2.5272672176361084 236.1485595703125
v 64.01119232177734 116.7378158569336 177.0079345703125
v 67.51398468017578 107.69615936279297 205.3896484375
v 57.41748046875 88.96054077148438 190.71299743652344
v 105.09730529785156 126.77328491210938 132.92018127441406
v 95.89221954345703 121.93545532226562 163.68971252441406
v 90.59105682373047 113.9378890991211 192.12326049804688
v 95.78605651855469 100.25662231445312 171.63401794433594
v -105.1256332397461 127.0125961303711 132.7157440185547
v -63.544189453125 116.80435180664062 176.95582580566406
v -96.01078033447266 122.13699340820312 163.38809204101562
v -67.27446746826172 107.73824310302734 205.2052001953125
v -57.21201705932617 88.9470443725586 190.5606231689453
v -95.98455810546875 100.49172973632812 171.28721618652344
v -90.70626068115234 114.06278991699219 191.7284698486328
v 11.712716102600098 -11.386209487915039 254.96995544433594
v 29.869199752807617 -12.025023460388184 239.193603515625
v 33.2840690612793 -27.561464309692383 214.18516540527344
v 11.572039604187012 -22.99100112915039 232.85182189941406
v -0.20853681862354279 -26.555761337280273 207.44012451171875
v -34.13264083862305 3.3174726963043213 217.8143310546875
v -11.385322570800781 -11.165428161621094 255.1265411376953
v -29.490873336791992 -11.289605140686035 239.37246704101562
v -11.830392837524414 -22.89082145690918 232.9759979248047
v -32.962913513183594 -27.28668785095215 214.26544189453125
v -44.55806350708008 49.78791427612305 216.1113739013672
v -10.545816421508789 35.08674240112305 257.5921325683594
v -35.2310676574707 39.866844177246094 242.32691955566406
v -10.187033653259277 11.285118103027344 260.07965087890625
v -29.125896453857422 11.925338745117188 244.8154296875
v 114.82469940185547 118.21778106689453 177.24398803710938
v 121.85933685302734 128.9837646484375 151.51466369628906
v 140.18212890625 142.49716186523438 79.12306213378906
v 133.3994140625 135.9485321044922 115.0445327758789
v 125.6308364868164 124.04037475585938 151.46583557128906
v 122.64739227294922 108.1869888305664 132.07644653320312
v 103.40167236328125 70.25996398925781 199.90476989746094
v 83.56581115722656 61.61571502685547 186.1670684814453
v 110.3386001586914 94.82107543945312 191.19468688964844
v 117.7459945678711 99.37667846679688 162.56463623046875
v 111.13925170898438 66.72980499267578 170.26905822753906
v 59.85600280761719 63.51033020019531 234.35855102539062
v 65.50318145751953 84.75823211669922 216.59642028808594
v 86.8175048828125 91.41133880615234 199.7152557373047
v 79.24341583251953 68.43453979492188 213.10067749023438
v -65.22931671142578 84.69121551513672 216.4764404296875
v -86.96875762939453 91.51561737060547 199.20730590820312
v -59.6089973449707 63.46540069580078 234.187744140625
v -83.8572998046875 61.30934143066406 185.73501586914062
v -79.41065979003906 68.33261108398438 212.57574462890625
v -122.63164520263672 108.51233673095703 131.68988037109375
v -110.3193130493164 94.801513671875 191.1382598876953
v -117.77410125732422 99.54138946533203 161.9571990966797
v -103.50936889648438 70.13211822509766 199.80003356933594
v -111.08779907226562 66.64421844482422 170.22879028320312
v -140.2985076904297 142.55337524414062 78.7863998413086
v -121.55935668945312 129.0864715576172 151.70999145507812
v -133.5316619873047 136.11761474609375 114.5013198852539
v -114.9222183227539 118.41264343261719 177.14645385742188
v -125.77335357666016 124.5784683227539 150.92742919921875
v -36.02622604370117 107.9791488647461 180.59422302246094
v -36.78730392456055 90.5945053100586 209.7220916748047
v 35.64143371582031 107.8668212890625 180.70811462402344
v 36.906524658203125 90.41619110107422 209.7637481689453
v 28.72626495361328 68.66602325439453 231.13221740722656
v -0.06807313859462738 64.5162353515625 244.1808319091797
v -28.46059799194336 68.9442367553711 231.0204620361328
v 60.18366622924805 1.6820106506347656 223.52418518066406
v 65.24484252929688 32.10466003417969 223.7830810546875
v 86.63961791992188 40.434661865234375 201.74847412109375
v 101.718017578125 41.20792770385742 170.8973388671875
v 97.87248992919922 -25.541547775268555 149.78427124023438
v 62.05373764038086 -19.017223358154297 199.68865966796875
v 90.92218017578125 142.96177673339844 108.38201141357422
v 79.39671325683594 134.46226501464844 132.58889770507812
v 149.93685913085938 166.7454833984375 43.71378707885742
v 131.76866149902344 162.78968811035156 83.88995361328125
v 110.9350814819336 147.5738525390625 117.60140228271484
v -90.2337646484375 143.02239990234375 108.96189880371094
v -150.55770874023438 167.0716552734375 43.045597076416016
v -79.28988647460938 134.71031188964844 132.44839477539062
v -111.4853744506836 147.810546875 117.1706771850586
v -132.65159606933594 163.1594696044922 82.84431457519531
v -24.214279174804688 -55.673301696777344 192.9522247314453
v -33.686561584472656 -88.38853454589844 140.4068145751953
v 0.6087542176246643 -52.759849548339844 208.92044067382812
v 25.658905029296875 -55.55284118652344 192.41294860839844
v 34.75027847290039 -88.33891296386719 140.28634643554688
v -101.38854217529297 40.59885025024414 170.92835998535156
v -97.58697509765625 -26.28261947631836 149.23780822753906
v -86.1118392944336 40.11063766479492 201.63681030273438
v -64.4744644165039 31.645177841186523 223.6610565185547
v -59.656761169433594 1.5801331996917725 223.24993896484375
v -61.3831901550293 -19.635061264038086 199.08700561523438
v 129.49124145507812 82.17867279052734 127.83755493164062
v 143.41526794433594 113.45805358886719 115.50041198730469
v 160.5572967529297 133.45458984375 81.45791625976562
v 165.6717987060547 150.9700164794922 42.22481918334961
v 138.68736267089844 91.75900268554688 104.18234252929688
v -160.2676544189453 132.84872436523438 82.1944351196289
v -165.64697265625 150.92706298828125 41.72819519042969
v -143.54820251464844 113.02265167236328 115.52613067626953
v -129.4097442626953 81.6607666015625 127.53306579589844
v -138.69845581054688 91.45405578613281 103.3867416381836
vn 0.5746220378175212 0.5712556316615589 -0.5860686964421428
vn -0.2957787884018123 0.7631249319010075 0.5745913736235853
vn -0.21785637833494537 -0.317824510060144 0.9227817614278094
vn 0.7771199816435628 -0.2270481153569748 0.5869699203904357
vn 0.29993404424225556 0.76038701387015 0.5760652378351963
vn 0.2185792073889717 -0.3175025802266771 0.9227216490614119
vn -0.5776171393243282 0.5730289001669219 -0.5813745091868645
vn -0.780966218002867 -0.2222076185339813 0.5837084380097268
vn -0.254233255408988 0.15291599024472935 0.95497756610908
vn 0.7825684756675156 0.48260275404502434 0.3932952614507055
vn 0.25557482342814686 0.1525327653661363 0.9546807137045509
vn -0.7864043137017476 0.4778369140120968 0.3914589876330332
vn -0.42045712698016097 -0.8052645598931605 0.418048792548984
vn 0.7180347406691036 -0.6810763644276933 -0.14339141191232188
vn 0.4247386919512833 -0.800971057933104 0.42195071739841516
vn -0.70662251671916 -0.693160835624894 -0.1421712869087115
vn 0.4562167807084482 0.5270436111714899 -0.7170015906002823
vn 0.7297453906119248 0.3915521320600364 -0.5604985216393431
vn 0.4924530170903611 0.6124979531135467 -0.6183334726426477
vn 0.2821377553106463 0.758561343904709 -0.5873525130292301
vn -0.4970264515603373 0.6084553266385404 -0.618665355369546
vn -0.7310864914191786 0.3895199072150601 -0.5601667465563859
vn -0.45553573736326025 0.528482638867778 -0.7163751059328208
vn -0.2841872824774144 0.7580381699163549 -0.5870397954380656
vn 0.8775120763490192 0.2106146527626202 -0.43082946034749536
vn -0.877817025016516 0.20790545203881552 -0.43152357247743617
vn 0.11527259929144901 -0.8944798518493958 -0.4319930815280216
vn -0.11320084715776729 -0.8933781643815529 -0.4348114805395676
vn 0.6223738002379458 -0.6372391924814126 -0.45450749646514615
vn -2.2329389684276857E-4 -0.38115941140064813 -0.9245093040313587
vn -0.3809369971430248 -0.20687763882689292 -0.9011596122558228
vn -0.6910390832389709 -0.583777466134651 -0.4262262960794996
vn -0.6722726597524776 0.6637167138973945 -0.3279170545161893
vn -0.5498490830817496 0.2795646991643772 -0.7870892991365659
vn 0.5330447233373952 0.6655664920786548 -0.522383544480752
vn -3.690503003150103E-4 0.32115550573616425 -0.9470264013939761
vn 0.5710579597701757 -0.7813719307927867 -0.2516956740833598
vn 0.40120769187677213 0.31931954816017 -0.8585263036982024
vn 0.060609942830062206 -0.6428747626855772 -0.763569560899398
vn -0.2275406779228396 -0.8297534709444778 -0.5096414596027348
vn -0.6034636886512791 -0.7499026830033453 -0.27106741320892236
vn -0.8226909910581262 0.333431062171887 -0.4604381174606696
vn -0.5045807775992636 -0.45116236282243133 -0.7361051292103616
vn 0.22877946061290674 -0.8285806076144455 -0.5109932828197877
vn -0.5743067769740184 -0.7780245588933344 -0.2546556727829702
vn 0.6018862604016371 -0.7508504209128857 -0.2719495816409267
vn -0.40045299988164296 0.32493621780982335 -0.8567694259491523
vn -0.05463932005869667 -0.6396580158390416 -0.7667151801525672
vn 0.5038622709073857 -0.4501864827978895 -0.7371939654270903
vn 0.8233935080979133 0.33096158227313194 -0.4609637316334945
vn 0.4758995006957648 -0.3574482618888424 -0.8035859663472026
vn -0.7812104366202782 -0.43272913450766853 -0.4499508304957315
vn -0.616566304496399 0.7229451691657622 -0.3117631705951509
vn 0.518923026393057 0.795693065331444 -0.3123962843289292
vn 0.002190425628350681 0.7043250139882864 -0.7098742682376696
vn 0.5519674935932954 0.2759010699836335 -0.7868992855494414
vn -0.4900600928288755 -0.34709231148981873 -0.799604922897057
vn 0.7736427520669645 -0.4432426035239674 -0.4527834875473578
vn -0.510702718692521 0.802847890762928 -0.3076003859191101
vn 0.6220009946109634 0.7184209081392137 -0.3114260128046463
vn 0.3859173021485635 -0.204417730729249 -0.8996005931889322
vn -0.6248022779050784 -0.6425072619885099 -0.4436288221212114
vn 0.6924436113803043 -0.5852220379627814 -0.42194432256079806
vn -0.5325553819619999 0.6688273417043131 -0.5187048796107958
vn 0.6790533893133985 0.6608006274283126 -0.31973274035096
vn -0.1742603660534833 -0.15677142452807705 -0.9721399309123886
vn 0.4333690765854686 -0.8778376877438662 -0.20394175010517301
vn -0.6392473558542282 -0.5872811858586461 -0.49645103159308684
vn -0.7089055146325826 -0.6652565414375977 -0.23427911857013428
vn -0.8492173073272662 0.4900064581891378 -0.19678322049596694
vn -0.8532782354874738 -0.1490062062044708 -0.49971332117118333
vn 0.3116225477454987 0.45577892975497203 -0.8337607300227186
vn -0.6656656768819471 0.15017846047538222 -0.7309826513882142
vn 0.29638762528001045 -0.807789578149588 -0.5095393733695041
vn -0.7864718122250699 -0.5611685689673837 -0.257976599284728
vn -0.7518443120263372 0.6217421190093999 -0.2194695147927043
vn 0.44133163640546563 0.4688498406530301 -0.7651184311120092
vn 0.5335038996726247 -0.7894091521656564 -0.3036556923741123
vn -0.6732409634296095 -0.6344354250795275 -0.37978717272247414
vn -0.7793722214203035 0.5666725781085759 -0.26732214591792003
vn -0.5302703551629285 -0.7905317208371937 -0.30638692659049127
vn 0.6698038188427354 -0.6352961813593835 -0.3843977187937952
vn -0.44016730218586564 0.4604661700933694 -0.7708590352885286
vn 0.6636496090097744 0.15630636885056257 -0.7315309395493298
vn 0.7780932427850641 0.565502222510418 -0.2734559230808525
vn 0.8544379663633624 -0.14625216352104065 -0.49854394620961595
vn -0.29869112184094326 -0.8058239122540994 -0.5113036633673733
vn 0.7893773338417839 -0.5564657338980666 -0.2592861581614471
vn -0.3135661260935251 0.4586507941740786 -0.8314539876446481
vn 0.7551114830752366 0.617593875948001 -0.21996466197878664
vn 0.6481531547422508 -0.5774550781120679 -0.4964303785630504
vn -0.43566618586900047 -0.8766917919295624 -0.20397665663916173
vn 0.7118893512757493 -0.6624264675153639 -0.23324820830031942
vn 0.1717843437970644 -0.15213608206754986 -0.9733163677650488
vn 0.8493945678621934 0.4907950637022237 -0.19403369174380028
vn 0.23484051923469235 -0.8757667478004874 -0.42176122862650345
vn 0.6227816242410927 -0.5214337991010137 -0.5833093876003625
vn -0.22824665258186752 -0.8772061961671331 -0.4223893405273878
vn -0.6139565632027777 -0.5286534833332112 -0.5861593921962659
vn -0.606660278763497 0.061624458486289876 -0.7925690709880545
vn 0.0033347735305552387 0.39318512880159656 -0.9194532798216404
vn 0.6107518723688408 0.06265921401183987 -0.7893389470293315
vn 0.20758369216274722 0.3566903534642321 -0.9108682684634715
vn -0.06290317710920101 -0.39030414144781517 -0.918534630527479
vn -0.6152904025021988 -0.525237099334621 -0.5878296607617173
vn -0.9068598495628766 -0.12451589133623522 -0.40261769217899485
vn -0.7442275982331938 0.5136257477969918 -0.4269822867848654
vn -0.15661704898692877 0.7863300923977071 -0.597625372416901
vn 0.3026111116115121 -0.9416497661147479 -0.14738464338351356
vn 0.09099868837012567 -0.8141728892156986 -0.5734472470777747
vn -0.34762915454737153 -0.8689570270225642 -0.3522323893352038
vn -0.8038809935944967 -0.2797346508441637 -0.5249036799781637
vn -0.5145212469345508 -0.410520020729446 -0.75282215631131
vn -0.29750479576733624 -0.9423305469462747 -0.15331026315080853
vn 0.3601311514154356 -0.8629826812017155 -0.35435356034064486
vn -0.08642184895803465 -0.8113449288567304 -0.578144160604552
vn 0.5192247148529515 -0.4036888586017662 -0.7532867985878118
vn 0.8114977368688452 -0.261920460165701 -0.5223687352850762
vn 0.668175644150363 0.2549752547447462 -0.6989484444736245
vn 0.40847553757464755 0.8000770597625803 -0.4393454604804372
vn -0.0016227460452669848 -0.025189862615248148 -0.9996813679951715
vn -0.6752196955880543 0.23962653067390371 -0.6976084062618254
vn -0.4138554406642859 0.7976451454220165 -0.4387321463230839
vn 0.906857538343035 -0.11434003961417594 -0.4056300783860086
vn 0.7389589025373193 0.5206560601430222 -0.4276178286708663
vn 0.6220068872501462 -0.5123607729173906 -0.5921096778375422
vn 0.07545140077098204 -0.3840028078438337 -0.9202439511834611
vn -0.20355831242218878 0.3547800424251799 -0.9125213065680264
vn 0.14578669546463835 0.7896209915680559 -0.5960242688855723
vn -0.801271758444663 0.1876163476908174 -0.5681229402146651
vn -0.48015644449448885 -0.43524990912221884 -0.7615821068141707
vn -0.3493743388517981 -0.7726119504689901 -0.53010220273488
vn -0.8868597707273125 -0.2967227449200399 -0.35416854704026984
vn -0.922202418231429 0.34845469633794085 -0.16769622657692082
vn 0.3593418337995496 -0.767155775642128 -0.531361893986106
vn 0.8896989691929921 -0.28997007944765163 -0.35263734521750545
vn 0.48190185890585335 -0.43235928613190744 -0.7621260040692683
vn 0.8014945476387564 0.19100452512755148 -0.5666778286523516
vn 0.9220031459055371 0.3506616735071245 -0.1641541643500882
f 4//4 1//1 2//2
f 3//3 4//4 2//2
f 3//3 2//2 6//6
f 5//5 6//6 2//2
f 8//8 6//6 5//5
f 7//7 8//8 5//5
f 9//9 10//10 3//3
f 4//4 3//3 10//10
f 11//11 9//9 3//3
f 6//6 11//11 3//3
f 12//12 11//11 6//6
f 8//8 12//12 6//6
f 13//13 14//14 10//10
f 9//9 13//13 10//10
f 15//15 13//13 11//11
f 9//9 11//11 13//13
f 15//15 11//11 12//12
f 16//16 15//15 12//12
f 20//20 17//17 18//18
f 19//19 20//20 18//18
f 24//24 21//21 22//22
f 23//23 24//24 22//22
f 2//2 1//1 17//17
f 20//20 2//2 17//17
f 17//17 1//1 4//4
f 18//18 17//17 4//4
f 5//5 2//2 24//24
f 20//20 24//24 2//2
f 5//5 24//24 23//23
f 7//7 5//5 23//23
f 23//23 22//22 8//8
f 7//7 23//23 8//8
f 4//4 10//10 18//18
f 25//25 18//18 10//10
f 8//8 22//22 12//12
f 26//26 12//12 22//22
f 28//28 13//13 27//27
f 15//15 27//27 13//13
f 29//29 30//30 32//32
f 31//31 32//32 30//30
f 34//34 33//33 32//32
f 31//31 34//34 32//32
f 34//34 36//36 33//33
f 35//35 33//33 36//36
f 36//36 30//30 29//29
f 35//35 36//36 29//29
f 39//39 27//27 37//37
f 38//38 39//39 37//37
f 37//37 27//27 41//41
f 40//40 41//41 27//27
f 43//43 42//42 41//41
f 40//40 43//43 41//41
f 43//43 39//39 42//42
f 38//38 42//42 39//39
f 46//46 44//44 28//28
f 45//45 46//46 28//28
f 48//48 47//47 45//45
f 28//28 48//48 45//45
f 48//48 49//49 50//50
f 47//47 48//48 50//50
f 49//49 44//44 46//46
f 50//50 49//49 46//46
f 51//51 36//36 52//52
f 34//34 52//52 36//36
f 53//53 52//52 34//34
f 21//21 53//53 34//34
f 21//21 55//55 53//53
f 54//54 53//53 55//55
f 54//54 55//55 36//36
f 51//51 54//54 36//36
f 58//58 56//56 36//36
f 57//57 58//58 36//36
f 55//55 59//59 36//36
f 57//57 36//36 59//59
f 55//55 19//19 60//60
f 59//59 55//55 60//60
f 60//60 19//19 56//56
f 58//58 60//60 56//56
f 63//63 61//61 30//30
f 62//62 63//63 30//30
f 64//64 62//62 36//36
f 30//30 36//36 62//62
f 36//36 56//56 65//65
f 64//64 36//36 65//65
f 56//56 61//61 63//63
f 65//65 56//56 63//63
f 66//66 43//43 67//67
f 40//40 67//67 43//43
f 67//67 40//40 69//69
f 68//68 69//69 40//40
f 68//68 71//71 69//69
f 70//70 69//69 71//71
f 71//71 43//43 70//70
f 66//66 70//70 43//43
f 72//72 73//73 43//43
f 74//74 72//72 43//43
f 74//74 43//43 75//75
f 71//71 75//75 43//43
f 26//26 76//76 75//75
f 71//71 26//26 75//75
f 26//26 73//73 76//76
f 72//72 76//76 73//73
f 77//77 31//31 78//78
f 39//39 78//78 31//31
f 78//78 39//39 79//79
f 43//43 79//79 39//39
f 73//73 80//80 79//79
f 43//43 73//73 79//79
f 73//73 31//31 80//80
f 77//77 80//80 31//31
f 82//82 49//49 48//48
f 81//81 82//82 48//48
f 83//83 81//81 61//61
f 48//48 61//61 81//81
f 61//61 84//84 85//85
f 83//83 61//61 85//85
f 84//84 49//49 82//82
f 85//85 84//84 82//82
f 88//88 86//86 49//49
f 87//87 88//88 49//49
f 89//89 87//87 49//49
f 84//84 89//89 49//49
f 84//84 25//25 90//90
f 89//89 84//84 90//90
f 25//25 86//86 88//88
f 90//90 25//25 88//88
f 93//93 91//91 44//44
f 92//92 93//93 44//44
f 94//94 92//92 49//49
f 44//44 49//49 92//92
f 86//86 95//95 49//49
f 94//94 49//49 95//95
f 86//86 91//91 93//93
f 95//95 86//86 93//93
f 97//97 48//48 96//96
f 28//28 96//96 48//48
f 96//96 28//28 98//98
f 27//27 98//98 28//28
f 99//99 98//98 39//39
f 27//27 39//39 98//98
f 31//31 100//100 99//99
f 39//39 31//31 99//99
f 30//30 101//101 100//100
f 31//31 30//30 100//100
f 30//30 61//61 102//102
f 101//101 30//30 102//102
f 61//61 48//48 97//97
f 102//102 61//61 97//97
f 103//103 34//34 104//104
f 31//31 104//104 34//34
f 104//104 31//31 105//105
f 73//73 105//105 31//31
f 105//105 73//73 106//106
f 26//26 106//106 73//73
f 22//22 107//107 26//26
f 106//106 26//26 107//107
f 22//22 21//21 107//107
f 108//108 107//107 21//21
f 21//21 34//34 108//108
f 103//103 108//108 34//34
f 110//110 27//27 15//15
f 109//109 110//110 15//15
f 109//109 15//15 111//111
f 16//16 111//111 15//15
f 68//68 112//112 111//111
f 16//16 68//68 111//111
f 68//68 40//40 113//113
f 112//112 68//68 113//113
f 40//40 27//27 110//110
f 113//113 40//40 110//110
f 115//115 14//14 13//13
f 114//114 115//115 13//13
f 116//116 114//114 13//13
f 28//28 116//116 13//13
f 44//44 117//117 116//116
f 28//28 44//44 116//116
f 44//44 91//91 117//117
f 118//118 117//117 91//91
f 91//91 14//14 115//115
f 118//118 91//91 115//115
f 120//120 20//20 19//19
f 119//119 120//120 19//19
f 119//119 19//19 55//55
f 121//121 119//119 55//55
f 121//121 55//55 122//122
f 21//21 122//122 55//55
f 123//123 122//122 21//21
f 24//24 123//123 21//21
f 24//24 20//20 123//123
f 120//120 123//123 20//20
f 18//18 25//25 125//125
f 124//124 125//125 25//25
f 124//124 25//25 84//84
f 126//126 124//124 84//84
f 127//127 126//126 61//61
f 84//84 61//61 126//126
f 128//128 127//127 56//56
f 61//61 56//56 127//127
f 19//19 129//129 56//56
f 128//128 56//56 129//129
f 19//19 18//18 125//125
f 129//129 19//19 125//125
f 130//130 26//26 71//71
f 131//131 130//130 71//71
f 131//131 71//71 68//68
f 132//132 131//131 68//68
f 132//132 68//68 133//133
f 16//16 133//133 68//68
f 16//16 12//12 133//133
f 134//134 133//133 12//12
f 12//12 26//26 130//130
f 134//134 12//12 130//130
f 136//136 14//14 91//91
f 135//135 136//136 91//91
f 137//137 135//135 91//91
f 86//86 137//137 91//91
f 138//138 137//137 86//86
f 25//25 138//138 86//86
f 10//10 139//139 138//138
f 25//25 10//10 138//138
f 10//10 14//14 136//136
f 139//139 10//10 136//136
