# Rhino

g object_1
v -8.536503791809082 4.897790908813477 12.78170299530029
v -8.365579605102539 3.550972700119019 12.22190093994141
v -7.762585163116455 2.275257587432861 11.69165420532227
v -6.148801326751709 -0.03819280117750168 10.73007392883301
v -5.282768726348877 -1.113184213638306 10.28325653076172
v -4.231919765472412 -2.151706218719482 9.851597785949707
v -3.589279890060425 -2.645015001296997 9.64655590057373
v -2.916568756103516 -3.042849540710449 9.481196403503418
v -1.747859477996826 -3.198203563690186 9.416624069213867
v -0.9619209170341492 -0.5918778777122498 10.4999361038208
v -1.040990233421326 0.8453273177146912 11.0973072052002
v -1.155283451080322 1.498586416244507 11.3688325881958
v -1.316803336143494 2.138046979904175 11.63462257385254
v -1.77329683303833 3.427168846130371 12.17044258117676
v -2.392844438552856 4.702801704406738 12.70065593719482
v -4.2471923828125 6.828069686889648 13.58401775360107
v -5.630179405212402 7.312263011932373 13.78527164459229
v -6.349368572235107 7.321815490722656 13.78924179077148
v -7.020544528961182 7.142119884490967 13.71455192565918
v -7.598670482635498 6.761265754699707 13.55625152587891
v -8.05799388885498 6.222355842590332 13.33225440979004
v -8.536503791809082 4.897790908813477 12.78170299530029
v -6.959123611450195 4.967829704284668 6.390851497650146
v -6.706092834472656 3.383792638778687 6.110950469970703
v -6.001523494720459 1.925258159637451 5.845827102661133
v -4.092668533325195 -0.6941662430763245 5.365036964416504
v -3.001027584075928 -1.943055272102356 5.141628265380859
v -1.737981915473938 -2.917490482330322 4.925798892974854
v -1.017483592033386 -3.208525419235229 4.823277950286865
v -0.2779237031936646 -3.329551458358765 4.740598201751709
v 1.048567414283752 -2.961444616317749 4.708312034606934
v 2.377455711364746 -0.07391389459371567 5.2499680519104
v 2.524648189544678 1.565333485603333 5.548653602600098
v 2.444989919662476 2.327935457229614 5.6844162940979
v 2.233381748199463 3.042990684509277 5.81731128692627
v 1.406530976295471 4.322358131408691 6.085221290588379
v 0.2731988131999969 5.448712348937988 6.350327968597412
v -2.316425561904907 7.302311420440674 6.792008876800537
v -3.938575506210327 7.825442314147949 6.892635822296143
v -4.743001461029053 7.856681346893311 6.894620895385742
v -5.470702171325684 7.663613319396973 6.85727596282959
v -6.074164390563965 7.214748859405518 6.778125762939453
v -6.532705783843994 6.564902782440186 6.66612720489502
v -6.959123611450195 4.967829704284668 6.390851497650146
v -5.381743431091309 5.037868976593018 0
v -5.046605587005615 3.216612577438354 0
v -4.240462303161621 1.575258731842041 0
v -2.036535739898682 -1.350139737129211 0
v -0.7192864418029785 -2.772926330566406 0
v 0.7559560537338257 -3.683274507522583 0
v 1.554312586784363 -3.772036075592041 0
v 2.360721349716187 -3.616253137588501 0
v 3.844994306564331 -2.724685668945312 0
v 5.716832160949707 0.4440500736236572 0
v 6.090286731719971 2.285339593887329 0
v 6.045263290405273 3.157284498214722 0
v 5.783566951751709 3.947934627532959 0
v 4.586358547210693 5.21754789352417 0
v 2.939242124557495 6.194622993469238 0
v -0.3856586515903473 7.776553630828857 0
v -2.246971607208252 8.338622093200684 0
v -3.136634826660156 8.391547203063965 0
v -3.920860052108765 8.185107231140137 0
v -4.54965877532959 7.668231964111328 0
v -5.007418155670166 6.907449722290039 0
v -5.381743431091309 5.037868976593018 0
vt 0 0
vt 0 0.05000000074505806
vt 0 0.1000000014901161
vt 0 0.2000000029802322
vt 0 0.25
vt 0 0.300000011920929
vt 0 0.324999988079071
vt 0 0.3499999940395355
vt 0 0.4000000059604645
vt 0 0.5
vt 0 0.550000011920929
vt 0 0.574999988079071
vt 0 0.6000000238418579
vt 0 0.6499999761581421
vt 0 0.699999988079071
vt 0 0.800000011920929
vt 0 0.8500000238418579
vt 0 0.875
vt 0 0.8999999761581421
vt 0 0.925000011920929
vt 0 0.949999988079071
vt 0 1
vt 0.5 0
vt 0.5 0.05000000074505806
vt 0.5 0.1000000014901161
vt 0.5 0.2000000029802322
vt 0.5 0.25
vt 0.5 0.300000011920929
vt 0.5 0.324999988079071
vt 0.5 0.3499999940395355
vt 0.5 0.4000000059604645
vt 0.5 0.5
vt 0.5 0.550000011920929
vt 0.5 0.574999988079071
vt 0.5 0.6000000238418579
vt 0.5 0.6499999761581421
vt 0.5 0.699999988079071
vt 0.5 0.800000011920929
vt 0.5 0.8500000238418579
vt 0.5 0.875
vt 0.5 0.8999999761581421
vt 0.5 0.925000011920929
vt 0.5 0.949999988079071
vt 0.5 1
vt 1 0
vt 1 0.05000000074505806
vt 1 0.1000000014901161
vt 1 0.2000000029802322
vt 1 0.25
vt 1 0.300000011920929
vt 1 0.324999988079071
vt 1 0.3499999940395355
vt 1 0.4000000059604645
vt 1 0.5
vt 1 0.550000011920929
vt 1 0.574999988079071
vt 1 0.6000000238418579
vt 1 0.6499999761581421
vt 1 0.699999988079071
vt 1 0.800000011920929
vt 1 0.8500000238418579
vt 1 0.875
vt 1 0.8999999761581421
vt 1 0.925000011920929
vt 1 0.949999988079071
vt 1 1
vn -0.9525282979011536 0.196016862988472 -0.2329533696174622
vn -0.9451417922973633 -0.2091304659843445 -0.2509410083293915
vn -0.8782353401184082 -0.413763552904129 -0.2397965639829636
vn -0.8155726790428162 -0.5224928855895996 -0.2486812621355057
vn -0.7773534655570984 -0.576410174369812 -0.2519383132457733
vn -0.6741008162498474 -0.7011620402336121 -0.2322926670312881
vn -0.5954185128211975 -0.7705455422401428 -0.2274562269449234
vn -0.4576250910758972 -0.8658129572868347 -0.2023542076349258
vn 0.3992255032062531 -0.8965169787406921 0.1920319795608521
vn 0.83221036195755 -0.2238520979881287 0.5072633624076843
vn 0.8427392244338989 -0.1057479530572891 0.5278332829475403
vn 0.8467106819152832 -0.03843946009874344 0.5306631326675415
vn 0.8513520359992981 0.02765868790447712 0.5238651633262634
vn 0.8640627264976501 0.1645659059286118 0.4757243990898132
vn 0.862185001373291 0.312553882598877 0.3986817300319672
vn 0.5384716987609863 0.816043496131897 0.2100505828857422
vn 0.1354665607213974 0.9850321412086487 0.106585368514061
vn -0.1163041070103645 0.9919615387916565 0.04985615238547325
vn -0.4057601392269135 0.9137094616889954 -0.02222028188407421
vn -0.6457048654556274 0.7577125430107117 -0.09453514963388443
vn -0.7962321639060974 0.585560142993927 -0.1520975381135941
vn -0.9525282979011536 0.196016862988472 -0.2329533696174622
vn -0.9676914811134338 0.08344259858131409 -0.2379296571016312
vn -0.9288700819015503 -0.2781262993812561 -0.2446347028017044
vn -0.8535341024398804 -0.4679614901542664 -0.22911037504673
vn -0.7751824855804443 -0.5903470516204834 -0.2249054610729218
vn -0.7122793793678284 -0.6704029440879822 -0.2078892439603806
vn -0.4784910082817078 -0.8715780377388 -0.1067616194486618
vn -0.2777968049049377 -0.959966242313385 -0.03596841543912888
vn -0.03399958088994026 -0.9985612630844116 0.0414666049182415
vn 0.5521790981292725 -0.7821720838546753 0.2886261940002441
vn 0.8286701440811157 -0.2458864450454712 0.502837598323822
vn 0.8433125019073486 -0.07153443992137909 0.5326413512229919
vn 0.8389129638671875 0.06331521272659302 0.5405702590942383
vn 0.8133791089057922 0.233674094080925 0.532738983631134
vn 0.7216472625732422 0.5226177573204041 0.4539778828620911
vn 0.669038712978363 0.6516410708427429 0.3574228286743164
vn 0.4373051822185516 0.8799206614494324 0.1857520788908005
vn 0.152358740568161 0.9821269512176514 0.1105147749185562
vn -0.09362833201885223 0.9940700531005859 0.05530291795730591
vn -0.4312609732151031 0.9017645120620728 -0.02889223955571651
vn -0.7108333110809326 0.6941529512405396 -0.1134359315037727
vn -0.8593249320983887 0.4816854000091553 -0.171871617436409
vn -0.9676914811134338 0.08344259858131409 -0.2379296571016312
vn -0.9708642363548279 -0.0002584831963758916 \
 -0.2396300584077835
vn -0.9141137599945068 -0.3273229598999023 -0.2392815947532654
vn -0.8333529829978943 -0.5067652463912964 -0.2207075506448746
vn -0.7462674379348755 -0.6320760250091553 -0.2087217420339584
vn -0.6633512377738953 -0.7270662784576416 -0.1770304143428802
vn -0.2752988934516907 -0.9613059759140015 0.0100642554461956
vn 0.04879431426525116 -0.9887303709983826 0.1415321826934814
vn 0.3072986602783203 -0.9241579174995422 0.2269354462623596
vn 0.6322911977767944 -0.6958702802658081 0.3405472338199615
vn 0.825185239315033 -0.2652489542961121 0.4987106025218964
vn 0.8430594801902771 -0.04472862929105759 0.5359571576118469
vn 0.8264338970184326 0.1436816602945328 0.544391930103302
vn 0.7556278705596924 0.3948957622051239 0.5225743055343628
vn 0.5369641184806824 0.7477365136146545 0.390588790178299
vn 0.4503408670425415 0.8450227975845337 0.2883220613002777
vn 0.3599350452423096 0.91801518201828 0.1664179265499115
vn 0.1653760075569153 0.9796746373176575 0.1135269179940224
vn -0.07447212189435959 0.995424211025238 0.05987114086747169
vn -0.4538875222206116 0.8903763294219971 -0.03487223386764526
vn -0.7624990940093994 0.6339818239212036 -0.129082053899765
vn -0.9010581970214844 0.3917688727378845 -0.1860411465167999
vn -0.9708642363548279 -0.0002584831963758916 \
 -0.2396300584077835
f 24/24/24 2/2/2 1/1/1 23/23/23
f 25/25/25 3/3/3 2/2/2 24/24/24
f 26/26/26 4/4/4 3/3/3 25/25/25
f 27/27/27 5/5/5 4/4/4 26/26/26
f 28/28/28 6/6/6 5/5/5 27/27/27
f 29/29/29 7/7/7 6/6/6 28/28/28
f 30/30/30 8/8/8 7/7/7 29/29/29
f 31/31/31 9/9/9 8/8/8 30/30/30
f 32/32/32 10/10/10 9/9/9 31/31/31
f 33/33/33 11/11/11 10/10/10 32/32/32
f 34/34/34 12/12/12 11/11/11 33/33/33
f 35/35/35 13/13/13 12/12/12 34/34/34
f 36/36/36 14/14/14 13/13/13 35/35/35
f 37/37/37 15/15/15 14/14/14 36/36/36
f 38/38/38 16/16/16 15/15/15 37/37/37
f 39/39/39 17/17/17 16/16/16 38/38/38
f 40/40/40 18/18/18 17/17/17 39/39/39
f 41/41/41 19/19/19 18/18/18 40/40/40
f 42/42/42 20/20/20 19/19/19 41/41/41
f 43/43/43 21/21/21 20/20/20 42/42/42
f 44/44/44 22/22/22 21/21/21 43/43/43
f 46/46/46 24/24/24 23/23/23 45/45/45
f 47/47/47 25/25/25 24/24/24 46/46/46
f 48/48/48 26/26/26 25/25/25 47/47/47
f 49/49/49 27/27/27 26/26/26 48/48/48
f 50/50/50 28/28/28 27/27/27 49/49/49
f 51/51/51 29/29/29 28/28/28 50/50/50
f 52/52/52 30/30/30 29/29/29 51/51/51
f 53/53/53 31/31/31 30/30/30 52/52/52
f 54/54/54 32/32/32 31/31/31 53/53/53
f 55/55/55 33/33/33 32/32/32 54/54/54
f 56/56/56 34/34/34 33/33/33 55/55/55
f 57/57/57 35/35/35 34/34/34 56/56/56
f 58/58/58 36/36/36 35/35/35 57/57/57
f 59/59/59 37/37/37 36/36/36 58/58/58
f 60/60/60 38/38/38 37/37/37 59/59/59
f 61/61/61 39/39/39 38/38/38 60/60/60
f 62/62/62 40/40/40 39/39/39 61/61/61
f 63/63/63 41/41/41 40/40/40 62/62/62
f 64/64/64 42/42/42 41/41/41 63/63/63
f 65/65/65 43/43/43 42/42/42 64/64/64
f 66/66/66 44/44/44 43/43/43 65/65/65
